<?xml version="1.0" encoding="UTF-8"?>
<svg width="844.5" height="85.14" version="1.1" viewBox="0 0 844.5 85.14" xmlns="http://www.w3.org/2000/svg" xmlns:cc="http://creativecommons.org/ns#" xmlns:dc="http://purl.org/dc/elements/1.1/" xmlns:rdf="http://www.w3.org/1999/02/22-rdf-syntax-ns#">
  <metadata>
  <rdf:RDF>
    <cc:Work rdf:about="">
    <dc:format>image/svg+xml</dc:format>
    <dc:type rdf:resource="http://purl.org/dc/dcmitype/StillImage"/>
    <dc:title/>
    </cc:Work>
  </rdf:RDF>
  </metadata>
  <path d="m5.888 83.48c-2.804-1.861-4.291-3.665-5.19-6.303-0.9301-2.726-0.9301-66.54 0-69.26 0.8989-2.635 2.386-4.44 5.19-6.303l2.371-1.573 14.37-0.0023c16.1-0.0028 16.65 0.1058 20.15 3.983 2.716 3.006 3.162 5.179 3.165 15.44l3e-3 8.938-18.99-0.3108-0.5668-12.47-3.022-0.1729c-1.741-0.09958-3.363 0.11-3.826 0.4945-1.2 0.9958-1.2 52.21 0 53.2 0.4632 0.3844 2.085 0.594 3.826 0.4945l3.022-0.1729 0.3137-16.72h-4.564v-17.57h23.8l-3e-3 19.7c-2e-3 11.99-0.2356 20.53-0.598 21.84-0.7442 2.68-3.449 5.81-6.269 7.243-1.967 1.003-3.417 1.1-16.49 1.098l-14.33-2e-3zm45.73-40.93v-42.51h39.11v18.14h-19.84v14.74h18.7v17.57h-18.7v17h20.4v17.57h-39.67zm56.68 9.086v-33.42l-13.32-0.3194-0.3122-17.85h46.53l-0.3122 17.85-13.32 0.3194v66.82h-19.27zm60.53 32.28c-2.788-1.472-5.344-4.691-6.093-7.674-0.8507-3.379-0.8507-63.99 0-67.39 0.7674-3.047 3.342-6.235 6.218-7.703 2.009-1.025 3.379-1.117 16.6-1.117h14.41l2.732 1.842c1.836 1.237 3.205 2.767 4.173 4.66 1.394 2.726 1.447 3.229 1.637 15.44l0.1963 12.63h-19.38v-8.955c0-6.212-0.2085-9.165-0.6801-9.635-0.9386-0.9386-5.827-0.87-6.626 0.09329-0.4624 0.5572-0.6008 8.122-0.4945 27.06l0.1474 26.29 3.022 0.1729c4.615 0.2641 4.63 0.2302 4.63-10.16v-9.001h19.38l-0.1963 12.63c-0.1899 12.21-0.2433 12.72-1.637 15.44-0.9681 1.892-2.337 3.422-4.173 4.66l-2.732 1.842-14.53-0.025c-13.24-0.0229-14.71-0.1224-16.6-1.121zm52.38 0.2132c-2.578-1.271-5.627-4.824-6.337-7.385-0.8258-2.974-0.8258-65.41 0-68.35 0.3307-1.191 1.483-3.142 2.561-4.334 3.489-3.861 4.102-3.986 19.7-3.986 7.646 0 14.53 0.2379 15.3 0.5288 2.264 0.8609 5.586 4.112 6.694 6.552 0.9607 2.115 1.032 4.568 1.032 35.43 0 30.86-0.0715 33.32-1.032 35.43-1.108 2.439-4.431 5.69-6.694 6.552-0.7652 0.2909-7.686 0.523-15.38 0.5159-11.66-0.0108-14.3-0.164-15.83-0.9193zm19.58-15.05c0.9788-0.9788 0.9788-52.07 0-53.05-0.3741-0.3741-2.023-0.6801-3.664-0.6801-2.37 0-3.105 0.2255-3.571 1.096-0.379 0.7085-0.5866 9.953-0.5866 26.11s0.2077 25.4 0.5866 26.11c0.466 0.8706 1.2 1.096 3.571 1.096 1.641 0 3.29-0.3061 3.664-0.6801zm25.62-26.54v-42.53l16.54 0.3137 5.776 18.1c3.177 9.953 6.087 18.2 6.467 18.32 0.5311 0.177 0.6886-3.998 0.6886-18.24v-18.47h16.44v85.07l-16.63-0.3137-2.138-6.518c-1.176-3.585-3.824-11.81-5.883-18.28-2.06-6.467-3.988-11.76-4.284-11.76-0.3294 0-0.5388 7.158-0.5388 18.42v18.42h-16.44zm56.9 40.68c-1.903-1.272-3.195-2.719-4.173-4.676-1.338-2.676-1.428-3.443-1.611-13.74l-0.1938-10.91h19.37v7.3c0 8.502 0.1189 8.717 4.63 8.462l3.022-0.1729 0.1645-6.518c0.0905-3.585 0.0306-7.056-0.133-7.714-0.2291-0.9222-2.74-2.289-10.92-5.94-5.844-2.609-11.44-5.463-12.44-6.342-3.029-2.66-3.304-4.298-3.304-19.68 0-13.68 0.0212-13.93 1.417-16.72 0.9783-1.957 2.27-3.404 4.173-4.676l2.756-1.842h14.42c12.15 0 14.7 0.1439 16.23 0.9165 2.579 1.303 4.292 2.991 5.685 5.602 1.082 2.031 1.229 3.372 1.415 12.89l0.2073 10.63h-19.38v-6.688c0-4.446-0.228-6.915-0.6801-7.368-0.8819-0.8819-5.69-0.8819-6.575 0-1.064 1.064-0.921 12.85 0.1705 14.06 0.4679 0.517 5.355 2.705 10.86 4.862 12.02 4.709 13.86 6.093 14.91 11.17 0.4492 2.178 0.6138 7.799 0.4893 16.72-0.1741 12.47-0.2752 13.6-1.407 15.71-1.406 2.615-3.121 4.301-5.696 5.602-1.529 0.7725-4.078 0.9165-16.23 0.9165h-14.42zm57.02-31.6v-33.44h-13.6v-18.14h45.91v18.14h-13.6v66.88h-18.7zm35.71 24.69v-8.751l3.684-0.3552 0.2954-48.96-3.696-0.3561-0.3122-17.85h26.7l-0.3122 17.85-3.684 0.3552v49.24h3.967v17.57h-26.64zm43.08-24.67v-33.42l-13.32-0.3194-0.3122-17.85h46.53l-0.3122 17.85-13.32 0.3194v66.82h-19.27zm43.22 32.49c-2.578-1.271-5.627-4.824-6.337-7.385-0.3957-1.425-0.6025-14.91-0.6048-39.43l-3e-3 -37.27h18.7v33.76c0 22.19 0.2011 34.14 0.5866 34.86 0.4393 0.8207 1.194 1.096 3.004 1.096 1.33 0 2.723-0.3061 3.097-0.6801 0.514-0.514 0.6801-9.029 0.6801-34.86v-34.18h18.7l-3e-3 37.27c-2e-3 24.52-0.2088 38.01-0.6048 39.43-0.7255 2.612-3.812 6.167-6.433 7.414-2.822 1.339-28.06 1.319-30.79-0.0238zm54.83-32.49v-33.42l-13.32-0.3194-0.3122-17.85h46.53l-0.3122 17.85-13.32 0.3194v66.82h-19.27zm36.27 24.64v-8.785h3.401v-49.31h-3.401v-18.14h26.1l-0.3122 17.85-3.117 0.3587v49.24h3.401v17.57h-26.07zm38.45 7.64c-2.787-1.472-5.344-4.691-6.093-7.674-0.4075-1.618-0.6167-13.05-0.6167-33.69 0-20.64 0.2093-32.07 0.6167-33.69 0.7674-3.047 3.342-6.235 6.218-7.703 2.009-1.025 3.379-1.117 16.6-1.117h14.41l2.732 1.842c1.836 1.238 3.205 2.766 4.173 4.661l1.441 2.819v66.37l-1.441 2.819c-0.9681 1.895-2.336 3.423-4.173 4.661l-2.732 1.842-14.53-0.025c-13.24-0.0228-14.71-0.1224-16.61-1.121zm19.81-14.84c0.9788-0.9788 0.9788-52.07 0-53.05-0.8819-0.8819-5.69-0.8819-6.575 0-0.5094 0.5093-0.6801 7.249-0.6801 26.83 0 14.38 0.17 26.32 0.3779 26.53 0.6529 0.6529 6.167 0.4105 6.875-0.3023zm25.62-26.54v-42.53l16.63 0.3137 1.853 5.668c1.02 3.117 3.665 11.34 5.878 18.28 2.212 6.937 4.271 12.61 4.569 12.61 0.3344 0 0.5426-7.068 0.5426-18.42v-18.42h16.44v85.07l-16.58-0.3137-5.764-18.1c-3.171-9.953-6.07-18.2-6.444-18.32-0.5207-0.1735-0.6807 4.118-0.6807 18.24v18.47h-16.44zm50.99 34.73c-0.015-6.994 0.5202-11.35 5.22-42.51l5.236-34.72h25.81l0.2915 1.275c0.1603 0.7017 2.588 16.48 5.395 35.05 4.457 29.5 5.104 34.72 5.104 41.23v7.459h-8.774c-10.12 0-9.057 0.7799-9.641-7.085-0.1848-2.494-0.4816-5.618-0.6597-6.943l-0.3235-2.409h-8.785l-0.3925 6.093c-0.216 3.351-0.5384 7.051-0.7164 8.218l-0.324 2.125h-17.42l-0.016-7.793zm26.09-27.77c0-2.207-1.704-22.27-2.024-23.8-0.6836-3.282-1.286-0.2776-2.33 11.62-0.6223 7.09-1.03 13.09-0.9063 13.32 0.1237 0.2338 1.358 0.4251 2.742 0.4251 2.368 0 2.517-0.09244 2.518-1.559zm25.51-6.943v-42.51h19.27v67.45h19.27v17.57h-38.54zm46.48 34.29v-8.218h18.14v16.44h-18.14zm3.401-17.51c0-0.1217-0.7646-6.563-1.699-14.31-1.501-12.45-1.7-15.89-1.7-29.54v-15.44h18.14v15.68c0 14.84-0.9709 27.62-3.169 41.7l-0.3317 2.125h-5.618c-3.09 0-5.618-0.09958-5.618-0.2213z" fill="#fff" stroke-width=".5668"/>
</svg>
