<?xml version="1.0" encoding="UTF-8"?>
<svg width="579" height="229" version="1.1" viewBox="0 0 579 229" xmlns="http://www.w3.org/2000/svg" xmlns:cc="http://creativecommons.org/ns#" xmlns:dc="http://purl.org/dc/elements/1.1/" xmlns:rdf="http://www.w3.org/1999/02/22-rdf-syntax-ns#">
 <metadata>
  <rdf:RDF>
   <cc:Work rdf:about="">
    <dc:format>image/svg+xml</dc:format>
    <dc:type rdf:resource="http://purl.org/dc/dcmitype/StillImage"/>
    <dc:title/>
   </cc:Work>
  </rdf:RDF>
 </metadata>
 <path d="m72 224c-18.98-2.672-36.11-5.324-38.07-5.893-4.015-1.164-10.2-6.851-11.84-10.89-0.5969-1.47-5.784-19.41-11.53-39.86l-10.44-37.19 5.346-35.93c2.94-19.76 6.021-37.23 6.847-38.81 0.826-1.582 2.811-4.12 4.41-5.64 2.673-2.54 89.46-48.88 91.8-49.01 1.861-0.1059 89.92 46.45 92.61 48.96 1.447 1.352 3.358 4.112 4.246 6.134 1.404 3.198 11.62 67.93 11.62 73.63 0 2.927-20.63 75.92-22.45 79.45-1.911 3.696-6.63 7.639-10.77 9.004-2.979 0.981-73.93 11.21-76.28 11-0.55-0.0502-16.52-2.278-35.5-4.95zm42.49-40.31c-0.5716-9.147-0.4451-11.45 0.6514-11.84 0.7483-0.271 12.12 2.346 25.26 5.816s24.25 6.091 24.69 5.824c0.4315-0.2666-0.5403-3.697-2.159-7.624-1.619-3.926-2.754-7.329-2.522-7.561s3.948-1.325 8.258-2.428 8.012-2.18 8.227-2.394c0.2146-0.2131-1.473-2.855-3.75-5.871-2.277-3.016-4.14-5.798-4.14-6.182 0-0.3842 1.125-2.173 2.5-3.976s2.5-3.675 2.5-4.162-6.862-2.354-15.25-4.151c-26.57-5.693-26.06-4.627-4.896-10.17 10.09-2.643 18.63-5.08 18.96-5.416 0.3357-0.3358 0.0606-1.376-0.6114-2.312-3.675-5.12-3.649-5.43 1.585-18.85 3.448-8.838 4.655-13.05 3.862-13.46-0.6349-0.3333-4.395-1.427-8.355-2.43l-7.201-1.824-0.6647-5.32c-0.3656-2.926-1.014-5.32-1.441-5.32-0.4272 0-7.162 4.539-14.97 10.09-7.804 5.547-14.35 9.922-14.55 9.722-0.1998-0.1998 2.36-7.24 5.688-15.65 3.328-8.405 5.87-15.46 5.648-15.69-0.222-0.222-2.858 0.2495-5.857 1.048-2.999 0.7982-5.727 1.457-6.06 1.463-0.3338 0.006528-5.045-5.838-10.47-12.99-5.425-7.15-10.19-13-10.6-13-0.589 0-6.153 7.032-20.5 25.91-0.1715 0.2256-2.227-0.1406-4.568-0.8138s-5.044-1.451-6.006-1.728c-2.932-0.8437-2.953-0.9144 8.416 28.03l1.926 4.904-3.296-2.479c-9.128-6.867-26.72-18.83-27.69-18.83-0.6674 0-1.104 2.104-1.104 5.317v5.317l-7.25 1.714c-3.988 0.9425-7.879 2.105-8.648 2.583-1.138 0.7082-0.4249 3.295 3.839 13.92l5.237 13.05-2.589 3.394c-1.424 1.867-2.589 3.626-2.589 3.911 0 0.2843 8.323 2.696 18.5 5.36s18.16 5.13 17.75 5.48-8.62 2.327-18.25 4.393c-9.625 2.066-17.86 3.978-18.3 4.249s0.2668 1.914 1.571 3.652c1.304 1.738 2.671 3.671 3.038 4.295 0.3668 0.6241-1.128 3.389-3.321 6.143s-3.988 5.451-3.988 5.992 3.152 1.802 7.005 2.801 7.537 2.146 8.187 2.548c0.8636 0.5337 0.4279 2.654-1.615 7.862-1.539 3.922-2.587 7.343-2.328 7.601 0.2582 0.2582 11.45-2.418 24.86-5.946 18.29-4.81 24.68-6.131 25.54-5.276 0.8179 0.8093 0.94 4.043 0.4207 11.14-0.4025 5.5-0.557 10.34-0.3434 10.75s3.106 0.75 6.428 0.75h6.04zm155.8 33.86c-6.2-2.694-10.18-6.633-13.49-13.35l-3.257-6.612-0.3395-24.77-0.3396-24.77h43.18v16.35c0 19.73-0.03855 19.65 10.63 19.65 4.089 0 7.467-0.4962 8.171-1.2 0.828-0.828 1.2-5.909 1.2-16.39 0-12.98-0.2543-15.5-1.75-17.34-0.9625-1.18-12.75-7.073-26.19-13.09-26.37-11.82-29.78-14.1-32.8-21.92-1.552-4.022-1.761-8.38-1.751-36.57 0.01-28.17 0.2219-32.53 1.77-36.43 2.58-6.504 6.187-10.72 12.03-14.07l5.187-2.975 33.28-0.0094c26.31-0.0074 33.99 0.2843 36.64 1.393 5.253 2.195 11.12 8.121 13.71 13.86 2.243 4.962 2.386 6.507 2.685 28.99l0.3154 23.75h-43.13v-15.3c0-10.57-0.3712-15.67-1.2-16.5-1.603-1.603-16-1.603-17.6 0-0.82 0.82-1.198 5.65-1.195 15.25 5e-3 13.1 0.1575 14.23 2.25 16.73 1.631 1.945 8.633 5.251 25.61 12.09 12.85 5.177 24.89 10.63 26.75 12.12 1.864 1.487 4.4 4.596 5.636 6.909 2.176 4.071 2.258 5.241 2.561 36.49 0.2069 21.35-0.0704 34.13-0.8188 37.74-1.574 7.582-6.32 14.26-12.95 18.22l-5.456 3.256-33.04-0.0391c-26.23-0.0311-33.72-0.331-36.3-1.455zm101.8-96.01v-97.5h89v40h-46v39h44v40h-44v76h-43zm118.9 94.99c-2.553-1.33-6.275-4.326-8.273-6.66-6.796-7.939-6.586-4.76-6.586-100v-85.82h43v78.8c0 59.96 0.287 79.09 1.2 80 0.66 0.66 3.74 1.2 6.845 1.2 9.773 0 8.955 7.475 8.955-81.83v-78.17h43v82.82c0 55.3-0.361 84.79-1.087 88.75-1.357 7.413-5.218 14.67-9.575 17.99-6.989 5.331-7.891 5.448-41.56 5.398-31.09-0.0463-31.31-0.0612-35.92-2.464z" fill="#db1e36"/>
</svg>
