<?xml version="1.0" encoding="UTF-8"?>
<svg width="142.2" height="138.2" enable-background="new" version="1.1" viewBox="-10 1.9 142.2 138.2" xml:space="preserve" xmlns="http://www.w3.org/2000/svg" xmlns:cc="http://creativecommons.org/ns#" xmlns:dc="http://purl.org/dc/elements/1.1/" xmlns:osb="http://www.openswatchbook.org/uri/2009/osb" xmlns:rdf="http://www.w3.org/1999/02/22-rdf-syntax-ns#"><metadata><rdf:RDF><cc:Work rdf:about=""><dc:format>image/svg+xml</dc:format><dc:type rdf:resource="http://purl.org/dc/dcmitype/StillImage"/><dc:title/></cc:Work></rdf:RDF></metadata><defs><filter id="filter1977" color-interpolation-filters="sRGB"><feBlend in2="BackgroundImage" mode="overlay"/></filter><filter id="filter1981" color-interpolation-filters="sRGB"><feBlend in2="BackgroundImage" mode="overlay"/></filter><filter id="filter1985" color-interpolation-filters="sRGB"><feBlend in2="BackgroundImage" mode="overlay"/></filter></defs><g><g><path d="m14.89 78.17c-5.695 0.0466-11.34 1.307-11.39 1.32l-0.8262 0.1874 0.5128 0.6709c2.305 3.023 6.449 6.906 6.624 7.069l0.5041 0.4718 5.52-9.727-0.9415 8e-3z" enable-background="new" fill="#dd1a1b" fill-rule="evenodd"/><path d="m105.7 78.16 5.526 9.727 0.5017-0.4712c0.1728-0.164 4.319-4.046 6.622-7.069l0.5119-0.6717-0.8261-0.1872c-0.0537-0.0124-5.698-1.273-11.39-1.32l-0.9414-8e-3z" enable-background="new" fill="#dd1a1b" fill-rule="evenodd"/><path d="m131.4 90.35-0.6096 0.0667c-2.696 0.3064-4.572-0.2624-5.57-1.69-1.466-2.097-0.7898-5.75 0.458-8.276l0.6046-1.167c-7.352-3.805-21.67-4.729-27.37-3.468l0.2392 1.071 0.4813 2.438c0.6046 2.918 1.124 5.439-0.1569 7.023-1.091 1.355-3.499 2.029-7.365 2.066l-0.3295 2e-3 -2.812 3.833 5.693 6.908c5.582-2.869 12.06-7.021 15.42-10.27l0.3395-0.3687-0.2675-0.4635c-1.256-2.654-5.264-9.439-6.059-10.79 4.888-0.116 11.44 0.5323 16.63 2.001-14.41 17.92-34.45 27.66-59.57 28.96-25.29-0.988-45.57-10.69-60.28-28.85l-0.0771-0.0771-2e-5 -2e-3c5.202-1.489 11.8-2.145 16.73-2.03-0.797 1.356-4.803 8.14-6.061 10.79l-0.2678 0.463 0.3394 0.3686c3.36 3.249 9.835 7.401 15.42 10.27l5.69-6.908-2.814-3.833-0.3267-2e-3c-3.866-0.0366-6.274-0.7106-7.368-2.066-1.281-1.585-0.7613-4.106-0.1567-7.023l0.4835-2.439 0.2371-1.071c-5.698-1.26-20.02-0.337-27.37 3.468l0.6738 1.299-1e-3 8e-5 0.2935 0.5657c1.294 2.504 2.029 6.161 0.5863 8.289-0.983 1.446-2.861 2.045-5.58 1.772l-0.625-0.0646-0.6563 4.602 0.1884 0.2236c12.32 14.62 38.33 31.7 71.07 31.75 32.68-0.4298 57.95-17.12 70.7-32.6l0.195-0.2317-0.7918-4.543z" enable-background="new" fill="#151142"/><path d="m119 108.6s-4.314 3.934-13.66 8.909c1.968 6.064 3.445 13.12 1.366 19.4 7.597-9.673 10.5-11.31 12.3-28.31" enable-background="new" fill="#151142" fill-rule="evenodd"/></g><g fill="#fcffff"><path d="m15.97 106.2 0.1243 0.1799c-0.0545 0.048-0.1313 0.1698-0.2342 0.3626-0.0613 0.1203-0.0234 0.3164 0.1206 0.5838 0.1436 0.2665 0.3584 0.5604 0.6406 0.8806 0.2858 0.3181 0.6392 0.6392 1.045 0.9716 0.4086 0.3324 0.8486 0.6203 1.32 0.867 0.9004 0.4734 1.618 0.7124 2.148 0.7228 0.5345 0.0124 0.903-0.1826 1.114-0.5811 0.1178-0.2291 0.0206-0.4837-0.3036-0.7593-0.3245-0.2778-0.7451-0.5871-1.271-0.9313-0.5253-0.3438-1.088-0.7176-1.687-1.119-0.603-0.3982-1.135-0.8332-1.595-1.296-0.4645-0.4645-0.7871-0.9627-0.9799-1.487-0.1931-0.5253-0.1363-1.076 0.167-1.655 0.234-0.4467 0.558-0.805 0.9648-1.073 0.4111-0.2726 0.8744-0.4398 1.391-0.5069 0.5172-0.0664 1.086-0.0359 1.706 0.0975 0.6176 0.1315 1.258 0.3707 1.916 0.7184 0.6121 0.3223 1.163 0.6606 1.652 1.016 0.4838 0.3549 0.909 0.6895 1.265 0.9989 0.3551 0.3112 0.65 0.5798 0.8877 0.8028 0.2436 0.2144 0.4118 0.365 0.5323 0.4269 0.1204 0.0649 0.2284 0.0879 0.3321 0.0686 0.1001-0.014 0.1987-0.0442 0.2958-0.0844l0.1523 0.1815-2.559 1.863-0.1546-0.222 0.1062-0.1974c0.0563-0.1105-3e-3 -0.2833-0.1773-0.5201-0.1722-0.2396-0.4145-0.4964-0.7292-0.776-0.3106-0.2814-0.6744-0.5662-1.085-0.8567-0.4139-0.2938-0.8286-0.5534-1.248-0.7724-0.7794-0.4084-1.374-0.6046-1.781-0.5886-0.406 0.0166-0.6637 0.1287-0.7716 0.3341-0.1392 0.2656-0.054 0.5454 0.2577 0.8416 0.3191 0.2899 0.7352 0.6123 1.26 0.9495 0.5271 0.3399 1.101 0.7072 1.716 1.109 0.6151 0.4015 1.15 0.8436 1.603 1.325 0.451 0.4832 0.7591 1.014 0.9238 1.592 0.1618 0.5792 0.0613 1.212-0.299 1.899-0.2025 0.3858-0.4886 0.733-0.8559 1.039-0.3682 0.3065-0.8285 0.5149-1.384 0.6228-0.5557 0.1107-1.209 0.0896-1.965-0.0621-0.7572-0.1487-1.621-0.4804-2.593-0.9902-0.7593-0.399-1.389-0.7819-1.889-1.152-0.5031-0.3742-0.9181-0.7134-1.247-1.025-0.3336-0.3044-0.5729-0.5729-0.7616-0.7616-0.1743-0.2035-0.3238-0.3238-0.4296-0.3857-0.073-0.0349-0.1462-0.0467-0.2274-0.0254-0.0801 0.0192-0.164 0.0439-0.2543 0.0723l-0.1921-0.1629z" enable-background="new"/><path d="m38.5 112.2-0.2261-0.0796c0.0385-0.1898 0.0436-0.3266 0.014-0.4088-0.0281-0.0809-0.0922-0.142-0.2014-0.1722l-6.324-2.264-0.6096 1.7 4.258 1.523c0.1029 0.0387 0.191 0.0359 0.2623-5e-3 0.072-0.0393 0.1521-0.1411 0.2415-0.3137l0.2264 0.083-1.16 3.238-0.2288-0.0795c0.0542-0.2269 0.0663-0.3836 0.0385-0.4632-0.0318-0.0816-0.0919-0.1445-0.2028-0.1736l-4.257-1.525-1.147 3.208c-0.0309 0.0891-0.0276 0.1716 6e-3 0.2523 0.0388 0.0768 0.1722 0.172 0.4071 0.2842l-0.0826 0.2268-4.018-1.438 0.0824-0.229c0.2546 0.0615 0.4166 0.0745 0.4966 0.036 0.0773-0.0368 0.1312-0.1001 0.164-0.1904l3.211-8.965c0.0332-0.0897 0.0289-0.1731-9e-3 -0.2517-0.0362-0.0771-0.1719-0.1719-0.4029-0.2859l0.0793-0.2262 9.807 3.511c0.1006 0.0362 0.1926 0.0287 0.2674-0.0224 0.0776-0.0542 0.1674-0.185 0.2697-0.3938l0.2261 0.0827-1.202 3.355z" enable-background="new"/><path d="m48.93 111.9c0.0155-0.0931 1e-3 -0.1769-0.043-0.2478-0.047-0.0762-0.1987-0.1461-0.4461-0.2207l0.0476-0.245 4.108 0.7917-0.0472 0.2456c-0.2574-0.0233-0.4215-0.0109-0.4965 0.0385-0.0684 0.0486-0.1127 0.1214-0.1315 0.2131l-1.036 5.377c-0.1699 0.8852-0.4576 1.601-0.8617 2.148-0.4012 0.5459-0.8875 0.9496-1.457 1.214-0.5679 0.2657-1.206 0.4121-1.908 0.4458-0.7054 0.0278-1.436-0.0286-2.195-0.1751-0.7561-0.1468-1.458-0.3656-2.099-0.6566-0.6408-0.2878-1.178-0.6633-1.608-1.121-0.4278-0.457-0.7272-1.014-0.8974-1.67-0.17-0.6585-0.1699-1.428-3e-5 -2.31l1.036-5.379c0.0208-0.0905 6e-3 -0.1751-0.0449-0.2468-0.0452-0.0744-0.1968-0.1442-0.4443-0.219l0.0461-0.2437 4.109 0.7924-0.0475 0.2451c-0.2545-0.0233-0.4221-0.0109-0.4938 0.0385-0.0699 0.0501-0.1153 0.1218-0.1363 0.2135l-1.034 5.372c-0.1496 0.7738-0.0337 1.371 0.3388 1.791 0.3754 0.4193 0.9653 0.7048 1.765 0.8587 0.8001 0.1551 1.453 0.1062 1.958-0.1412 0.504-0.2494 0.8306-0.7613 0.98-1.536z" enable-background="new"/><path d="m74.94 115.8 3.362-0.625c0.5896-0.1079 0.972-0.2932 1.15-0.5558 0.1802-0.2626 0.2416-0.5425 0.1877-0.8387-0.056-0.2932-0.2108-0.5351-0.473-0.713-0.2617-0.1827-0.6867-0.2158-1.273-0.108l-3.365 0.623zm1.022 5.5c0.0213 0.0944 0.0613 0.1667 0.1366 0.2156 0.0737 0.0446 0.2344 0.0616 0.4908 0.0439l0.0461 0.2421-4.112 0.7617-0.0461-0.2422c0.2495-0.0745 0.396-0.1437 0.4449-0.2157 0.0483-0.0717 0.0647-0.1549 0.0467-0.2495l-1.736-9.362c-0.0191-0.0922-0.0616-0.1641-0.1343-0.2133-0.0751-0.0459-0.2341-0.0644-0.4938-0.043l-0.0431-0.2422 7.319-1.361c1.48-0.2727 2.603-0.2004 3.37 0.2188 0.7693 0.4166 1.255 1.199 1.469 2.336 0.1722 0.9232 0.036 1.698-0.406 2.323-0.4455 0.6228-1.06 1.122-1.845 1.503l2.977 2.898c0.2086 0.2086 0.4221 0.2932 0.6453 0.2525l0.0486 0.2446-4.162 0.7724-0.0459-0.242c0.2878-0.0826 0.411-0.2317 0.3703-0.4449 0-0.0292-0.0726-0.1107-0.2099-0.251-0.1391-0.1391-0.3074-0.3097-0.5093-0.5093-0.1981-0.1981-0.431-0.4018-0.6699-0.632-0.2462-0.217-0.4724-0.4433-0.6975-0.6477-0.2319-0.2027-0.4224-0.3932-0.5912-0.5561-0.1659-0.1638-0.2778-0.2756-0.3318-0.3319l-1.961 0.3652z" enable-background="new"/><path d="m94.82 108.7-0.229 0.0773c-0.0877-0.1726-0.1671-0.2812-0.2419-0.3297-0.0748-0.0456-0.1628-0.0486-0.2654-0.014l-6.352 2.189 0.5993 1.731 4.271-1.472c0.0993-0.0352 0.1676-0.093 0.2004-0.1669 0.0338-0.0745 0.0284-0.2086-8e-3 -0.3961l0.2267-0.0775 1.119 3.243-0.2261 0.0774c-0.1056-0.2109-0.1903-0.3368-0.2652-0.3853-0.0725-0.0433-0.1624-0.0512-0.2649-0.0189l-4.27 1.472 1.116 3.236c0.0298 0.0913 0.0874 0.1548 0.1644 0.1936 0.0793 0.0383 0.2422 0.0286 0.4967-0.0315l0.0771 0.2293-4.04 1.392-0.0795-0.2259c0.2341-0.111 0.3702-0.206 0.4112-0.2837 0.0354-0.0759 0.0396-0.1624 9e-3 -0.2518l-3.108-9.022c-0.0298-0.0913-0.0869-0.1572-0.1644-0.1936-0.0768-0.0388-0.2446-0.0279-0.4937 0.0314l-0.0825-0.2288 9.851-3.396c0.1049-0.0328 0.1693-0.097 0.1994-0.184 0.0231-0.0882 0.0163-0.2472-0.0335-0.4764l0.226-0.077z" enable-background="new"/><path d="m105.4 104.4-0.2529-0.0304c-6e-3 -0.0411-0.018-0.0854-0.0338-0.1304-0.014-0.0464-0.041-0.0996-0.0719-0.1596-0.0436-0.0846-0.1746-0.1366-0.3912-0.1571-0.2158-0.0166-0.4755 5e-3 -0.7899 0.0641-0.3083 0.0619-0.6534 0.1544-1.034 0.283-0.3755 0.1262-0.7561 0.2859-1.142 0.4863-0.3651 0.1884-0.7204 0.4275-1.073 0.7154-0.3578 0.2911-0.6464 0.6172-0.8803 0.9832-0.2311 0.3622-0.3674 0.7612-0.414 1.191-0.0408 0.4274 0.0517 0.8721 0.2878 1.332 0.2378 0.4573 0.5438 0.7925 0.9243 1.003 0.3696 0.2115 0.7768 0.3296 1.209 0.352 0.4324 0.0211 0.8641-0.0278 1.304-0.1487 0.4426-0.1211 0.8444-0.2757 1.204-0.461 0.1604-0.0796 0.389-0.2362 0.7002-0.4652 0.3113-0.229 0.6096-0.4759 0.8927-0.7489 0.2877-0.2701 0.5292-0.5358 0.7284-0.7897 0.1975-0.2546 0.2596-0.4478 0.1925-0.5843-0.0318-0.061-0.0714-0.1006-0.1181-0.1181-0.0494-0.02-0.0868-0.0545-0.1364-0.0925l0.131-0.2291 3.334 1.891-0.1495 0.2392c-0.0511-0.0511-0.1104-0.0694-0.1613-0.0675-0.0545 8e-3 -0.108 0.0236-0.1706 0.0546-0.0922 0.0483-0.2393 0.1912-0.4337 0.4183-0.1951 0.2319-0.4599 0.5126-0.7997 0.8416-0.3414 0.3304-0.7561 0.6841-1.248 1.07-0.4838 0.3808-1.065 0.7462-1.739 1.095-0.7235 0.3705-1.493 0.6383-2.31 0.8009-0.8134 0.1619-1.611 0.1854-2.385 0.0711-0.7738-0.1128-1.494-0.3857-2.161-0.8152-0.661-0.4327-1.204-1.052-1.623-1.863-0.4141-0.8101-0.6125-1.61-0.576-2.403 0.0306-0.7928 0.2259-1.536 0.5863-2.233 0.352-0.7002 0.8364-1.335 1.438-1.909 0.6022-0.5712 1.266-1.044 1.992-1.418 0.7226-0.3758 1.366-0.6556 1.929-0.849 0.5636-0.1924 1.055-0.3319 1.464-0.4243 0.3989-0.0826 0.7124-0.1388 0.9386-0.1751 0.2268-0.0337 0.3885-0.0745 0.4862-0.1204 0.1105-0.0563 0.1753-0.1518 0.1954-0.2858l0.2267-0.0484z" enable-background="new"/></g><g><path d="m2.602 108.7s4.317 3.933 13.66 8.909c-1.968 6.064-3.445 13.12-1.367 19.4-7.596-9.676-10.49-11.31-12.3-28.31" enable-background="new" fill="#151142" fill-rule="evenodd"/><g><path d="m64.23 114.7c-1.136-1.274-3.435-1.083-5.132 0.4298-1.035 0.9217-1.606 2.121-1.638 3.206l-4.3e-4 0.1868c0.0164 0.6252 0.2209 1.203 0.6247 1.658 0.4974 0.5588 1.217 0.8358 2.011 0.8439l0.0851 1.1e-4c0.9999-0.0124 2.107-0.4456 3.036-1.273 1.061-0.9437 1.637-2.181 1.642-3.289 5e-3 -0.6643-0.2005-1.282-0.6281-1.761" enable-background="new" fill="#fcffff"/><path d="m63.12 119.7c-1.312 1.168-2.984 1.51-4.157 0.9771 1.106-0.1385 2.344-0.7303 3.43-1.677 1.167-1.019 1.937-2.272 2.148-3.398 0.4454 1.235-0.0798 2.902-1.42 4.098zm-3.923-4.402c0.9467-0.8416 2.105-1.295 3.175-1.23 0.6046 0.0335 1.117 0.239 1.523 0.5818 0.2059 1.083-0.5868 2.649-1.95 3.836-1.251 1.088-2.745 1.672-3.841 1.515-0.9418-1.232-0.4811-3.298 1.093-4.702zm5.407-0.2727c-0.0765-0.1263-0.1622-0.25-0.2599-0.3652-0.046-0.0464-0.1045-0.0753-0.151-0.1218-0.4701-0.4409-1.086-0.7177-1.811-0.7562-1.15-0.067-2.385 0.4092-3.388 1.302-1.755 1.564-2.215 3.923-1.027 5.259 0.1392 0.1392 0.2873 0.2581 0.4372 0.3758 1.276 0.8956 3.342 0.6022 4.904-0.7899 1.608-1.433 2.125-3.527 1.288-4.895" enable-background="new" fill="#151142"/><path d="m32.91 132.4-0.5323 1.56 4.027 1.375c0.116 0.0397 0.2152 0.0455 0.2957 0.014 0.0799-0.0314 0.1622-0.1071 0.2471-0.2317l0.1633 0.0551-0.64 1.874-0.1634-0.0553c0.0109-0.1444-6e-3 -0.2527-0.0517-0.3298-0.0464-0.0756-0.1313-0.1313-0.2445-0.1742l-5.913-2.017 0.0548-0.1619c0.1445 9e-3 0.254-6e-3 0.3302-0.0525 0.0767-0.0462 0.1335-0.127 0.1751-0.246l1.773-5.199c0.0399-0.1181 0.0439-0.2166 0.0124-0.2952-0.0318-0.0785-0.1068-0.1624-0.2242-0.2534l0.0562-0.1633 5.744 1.959c0.1206 0.0416 0.2206 0.045 0.301 0.014 0.0815-0.0298 0.1635-0.1058 0.2469-0.2293l0.151 0.0515-0.6388 1.874-0.1515-0.052c0.0109-0.1502-9e-3 -0.2605-0.0531-0.334-0.0455-0.0747-0.1281-0.1301-0.2481-0.1719l-3.858-1.317-0.4768 1.397 2.392 0.8158c0.1164 0.0402 0.2162 0.0435 0.2962 0.0124 0.0803-0.031 0.1642-0.1051 0.252-0.2286l0.1512 0.0517-0.6228 1.827-0.1515-0.052c9e-3 -0.1465-0.0109-0.2562-0.0537-0.3318-0.0452-0.0743-0.1291-0.1313-0.249-0.1728zm12.36-0.1121-1.135 1.352-0.1152-0.1152c0.0287-0.1265 8e-3 -0.238-0.0562-0.3314-0.1767-0.2498-0.4646-0.4938-0.8762-0.7122-0.4053-0.2268-0.8306-0.3896-1.277-0.4896-0.378-0.0851-0.7278-0.1082-1.044-0.0675-0.4562 0.0577-0.718 0.2326-0.7825 0.522-0.0419 0.1894 0.0292 0.3493 0.2131 0.4736 0.1869 0.1254 0.5639 0.2771 1.137 0.4564l0.9106 0.2773c0.794 0.2434 1.375 0.5374 1.741 0.8815 0.1987 0.1987 0.3552 0.4254 0.454 0.694 0.1268 0.3347 0.1487 0.6863 0.0671 1.055-0.1496 0.6681-0.5679 1.129-1.257 1.382-0.6581 0.2419-1.476 0.2538-2.458 0.0342-0.9882-0.2214-1.898-0.6438-2.726-1.268-0.0492-0.0492-0.1068-0.0688-0.1482-0.0779-0.0781-0.0166-0.1608 0.0155-0.2498 0.0928l-0.1333-0.0924 1.033-1.452 0.1326 0.0916c-6e-3 0.0236-8e-3 0.0391-0.0109 0.0477-0.0234 0.1023-1e-3 0.1943 0.0596 0.285 0.1573 0.2159 0.4663 0.4371 0.9126 0.6755 0.4528 0.2333 0.9141 0.4045 1.382 0.5091 0.4139 0.0925 0.7982 0.1212 1.151 0.0849 0.4363-0.0431 0.6877-0.2114 0.7545-0.5095 0.0537-0.2396-0.0492-0.4371-0.3103-0.5942-0.1737-0.1035-0.5003-0.234-0.9809-0.3856l-0.9033-0.282c-0.4869-0.1509-0.8556-0.286-1.103-0.4086-0.2489-0.12-0.456-0.2628-0.6259-0.4268-0.2143-0.2134-0.3621-0.4703-0.4423-0.7713-0.082-0.3015-0.0844-0.614-0.0124-0.9336 0.1609-0.7204 0.5945-1.201 1.297-1.442 0.6388-0.2187 1.373-0.2346 2.203-0.0487 0.4503 0.1006 0.8592 0.2443 1.225 0.431 0.3686 0.1871 0.7921 0.4672 1.277 0.8387 0.1425 0.1102 0.2468 0.1736 0.309 0.1861 0.0643 0.014 0.1538-0.0109 0.2717-0.0765l0.1159 0.116zm4.356 1.316-0.7365 4.833c-0.0186 0.122-3e-3 0.2187 0.0396 0.2942 0.045 0.0742 0.1391 0.1391 0.2696 0.2081l-0.0259 0.1701-2.347-0.3575 0.0259-0.17c0.144-0.0169 0.248-0.0515 0.3151-0.1099 0.0674-0.0585 0.1104-0.1501 0.129-0.2728l0.7365-4.837-1.961-0.2988c-0.1284-0.0202-0.2284-6e-3 -0.3006 0.0397-0.0768 0.0461-0.1423 0.1358-0.2037 0.2693l-0.1568-0.0251 0.2978-1.957 0.1583 0.0237c0.0171 0.143 0.0517 0.2477 0.1076 0.3155 0.0613 0.0613 0.1479 0.1099 0.2748 0.1284l5.522 0.8406c0.1265 0.0182 0.2264 6e-3 0.3007-0.0399 0.0759-0.0442 0.142-0.1332 0.2027-0.2694l0.1589 0.0244-0.298 1.957-0.159-0.0245c-0.0191-0.1448-0.0546-0.2506-0.1127-0.3175-0.0609-0.0609-0.1465-0.1085-0.2743-0.1279zm3.916 4.139c0.2741 0.0312 0.4951 0.1512 0.663 0.3612 0.1689 0.2128 0.2359 0.4554 0.2052 0.7309-0.0295 0.2666-0.1499 0.4846-0.3648 0.6546-0.2158 0.1673-0.4545 0.2376-0.7208 0.2084-0.2708-0.0309-0.4909-0.152-0.6603-0.3662-0.1679-0.2147-0.2372-0.4567-0.2079-0.7268 0.0298-0.2669 0.1484-0.4818 0.3596-0.6511 0.21-0.1687 0.4513-0.2379 0.7262-0.211zm7.425-2.905 0.0164-2.176 0.1971 1e-3c0.0439 0.1493 0.0827 0.2467 0.1245 0.2913 0.0399 0.0421 0.1009 0.0658 0.1841 0.067 0.0411 1.1e-4 0.0964-6e-3 0.1691-0.0241l0.517-0.1293 2e-3 -0.3548c1e-3 -0.1215-0.0261-0.2133-0.0821-0.2781-0.0593-0.0593-0.1538-0.1158-0.2959-0.1582l2e-3 -0.1969 2.496 0.0186-2e-3 0.197c-0.1436 0.038-0.2418 0.0883-0.2976 0.1516-0.0574 0.0596-0.0862 0.1538-0.0865 0.2779l-0.0504 6.938c-6.7e-4 0.1251 0.0268 0.2201 0.0813 0.2833 0.0601 0.0601 0.1537 0.1156 0.2975 0.157l-2e-3 0.1976-2.497-0.0186 2e-3 -0.1976c0.143-0.0387 0.2425-0.09 0.2982-0.154 0.0568-0.0633 0.0858-0.157 0.0861-0.2817l0.0379-5.184-0.565 0.1343c-0.1326 0.0314-0.2274 0.0764-0.2856 0.134-0.0601 0.0599-0.1071 0.1622-0.1498 0.3052l-0.1968-7.6e-4zm5.553 4.7 0.8676-2.055 0.176 0.0678c-0.0165 0.1006-0.0183 0.1808-0.0124 0.236 0.0155 0.1583 0.1561 0.3054 0.434 0.434 0.2242 0.113 0.5092 0.1949 0.8517 0.2485 0.3432 0.0534 0.6648 0.0663 0.969 0.0374 0.6655-0.0627 1.218-0.2904 1.654-0.6816 0.2876-0.2612 0.486-0.5595 0.6072-0.8914 0.1194-0.3328 0.1712-0.7619 0.1588-1.283-0.3678 0.397-0.7513 0.6949-1.149 0.8911-0.3971 0.1962-0.8673 0.3212-1.408 0.3727-0.8641 0.0821-1.625-0.054-2.28-0.4059-0.373-0.2033-0.6778-0.4818-0.9108-0.8378-0.2274-0.3444-0.3604-0.7342-0.4016-1.167-0.0815-0.8615 0.2104-1.585 0.8733-2.167 0.6461-0.5697 1.5-0.9033 2.561-1.005 1.155-0.1094 2.089 0.0967 2.796 0.6163 0.4713 0.3424 0.8408 0.8029 1.109 1.381 0.257 0.5561 0.4156 1.146 0.4754 1.773 0.1204 1.274-0.1734 2.341-0.8847 3.201-0.7374 0.8911-1.751 1.399-3.047 1.523-0.4557 0.043-0.8673 0.0407-1.238-6e-3 -0.3709-0.0472-0.8116-0.1557-1.322-0.3255-0.1737-0.0596-0.3086-0.0832-0.3997-0.0751-0.0672 6e-3 -0.1326 0.0371-0.1952 0.0975-0.0489 0.0476-0.0827 0.0813-0.1057 0.0992l-0.1712-0.0863zm3.061-6.846c-0.6105 0.0584-1.09 0.2559-1.442 0.5922-0.295 0.2774-0.4241 0.6164-0.3859 1.016 0.0373 0.3944 0.2268 0.7016 0.5695 0.9225 0.4062 0.2629 0.9158 0.3679 1.528 0.3093 0.6164-0.0582 1.097-0.256 1.447-0.5914 0.2954-0.28 0.4229-0.6144 0.3864-1-0.0383-0.404-0.2284-0.7175-0.5706-0.9387-0.3977-0.2631-0.9094-0.3647-1.532-0.3097zm11.86-2.579-0.6354 2.139-0.1812-0.0495c-1e-3 -0.1063-6e-3 -0.1845-0.016-0.2355-0.0331-0.156-0.1899-0.2865-0.4734-0.3915-0.2392-0.0899-0.5302-0.1423-0.8701-0.1577-0.3425-0.014-0.6663 0.0109-0.9689 0.0745-0.6494 0.1349-1.168 0.4208-1.559 0.8577-0.2547 0.2879-0.4214 0.603-0.4995 0.9498-0.079 0.3454-0.083 0.778-0.0166 1.295 0.3223-0.4349 0.6685-0.7732 1.041-1.012 0.3733-0.2387 0.8249-0.4146 1.352-0.5243 0.8531-0.178 1.628-0.1256 2.323 0.1544 0.3896 0.1583 0.7198 0.3987 0.9982 0.726 0.2602 0.3188 0.4373 0.6919 0.5255 1.12 0.1755 0.8402-0.0354 1.59-0.6288 2.246-0.575 0.6358-1.389 1.063-2.443 1.283-1.135 0.236-2.081 0.1341-2.839-0.3052-0.5024-0.2888-0.9202-0.7066-1.253-1.253-0.3164-0.5242-0.5391-1.093-0.6671-1.71-0.2608-1.252-0.0868-2.345 0.5229-3.279 0.6324-0.9671 1.584-1.583 2.856-1.848 0.4459-0.0927 0.8593-0.1346 1.238-0.1274 0.3786 6e-3 0.8257 0.0638 1.338 0.1749 0.1806 0.0401 0.3159 0.0495 0.4108 0.0298 0.065-0.014 0.1246-0.0509 0.1763-0.1164 0.0439-0.0526 0.0733-0.0908 0.0951-0.1127zm-2.87 4.35c-0.5937 0.124-1.046 0.373-1.36 0.7458-0.2604 0.3076-0.351 0.6572-0.2697 1.046 0.0809 0.391 0.3038 0.6778 0.6666 0.8598 0.432 0.2184 0.9508 0.2656 1.557 0.1391 0.6058-0.1259 1.063-0.3762 1.373-0.7488 0.2592-0.3118 0.3514-0.6572 0.2721-1.036-0.0821-0.3974-0.3064-0.6881-0.6683-0.8703-0.4282-0.2175-0.9504-0.2606-1.57-0.1358zm4.99 2.167 0.8998-2.222 0.1787 0.0646c0 0.1082 8e-3 0.1979 0.027 0.2669 0.0539 0.1944 0.2635 0.3513 0.629 0.465 0.7612 0.2426 1.534 0.2566 2.314 0.0469 0.5829-0.157 1.01-0.4037 1.28-0.7397 0.2904-0.3652 0.3733-0.7823 0.2483-1.247-0.1175-0.431-0.3843-0.7287-0.8032-0.891-0.419-0.1615-0.9216-0.1644-1.51-6e-3 -0.4312 0.1164-0.8216 0.2955-1.168 0.5398-0.3462 0.2444-0.4983 0.4441-0.4551 0.605 0.014 0.0526 0.0613 0.1257 0.144 0.2114l-0.1083 0.161-2.592-1.505 0.0823-0.1724c0.0335-5e-3 0.0563-8e-3 0.0762-0.014 0.1844-0.0498 0.2459-0.1932 0.1819-0.4289l-0.452-1.676c-0.0345-0.1282-0.0888-0.2177-0.1606-0.2688-0.0764-0.0472-0.1821-0.0739-0.3252-0.0734l-0.0522-0.1898 6.269-1.69c0.1178-0.0315 0.2021-0.0818 0.2471-0.1516 0.0453-0.0688 0.0708-0.1779 0.0745-0.33l0.1869-0.0501 0.5626 2.09-0.1889 0.0511c-0.0799-0.1298-0.1572-0.2128-0.2247-0.2539-0.0753-0.0373-0.1711-0.0394-0.2901-6e-3l-4.507 1.215 0.4611 1.71c0.5517-0.4891 1.25-0.8467 2.09-1.073 1.1-0.2968 2.035-0.2727 2.803 0.0729 0.7122 0.3174 1.172 0.8655 1.383 1.649 0.1606 0.5955 0.1276 1.175-0.0948 1.743-0.3855 0.9746-1.301 1.657-2.75 2.047-0.9363 0.2517-1.786 0.3032-2.553 0.1532-0.1863-0.0371-0.4975-0.1147-0.9332-0.2325-0.1883-0.0537-0.3462-0.0624-0.4777-0.0267-0.0733 0.0205-0.1774 0.0948-0.3065 0.225l-0.1804-0.0722z" enable-background="new" fill="#151142"/></g><g fill-rule="evenodd"><path d="m101.4 2.631-80.37 0.0334-0.1376 28.63c0.0714 26.65 7.233 56.6 40.88 70.69 25.74-11.82 39.73-34.26 39.59-70.93 3e-3 -26.02 0.0347-28.42 0.0347-28.42" enable-background="new" fill="#fcffff"/><path d="m20.97 31.39 72.63-0.0664 0.0311 0.3731c0.5784 10.12-0.7128 18.74-2.579 26.62l6.994-1e-5 0.267 0.0464c1.934-7.878 3.118-16.94 3.084-27.2-0.1029-26.31 9e-3 -28.53 9e-3 -28.53l-80.37 0.0334z" enable-background="new" fill="#dd1a1b"/><path d="m61.79 102c-22.48-9.408-33.14-25.91-37.75-43.77l0.3764-0.0315h6.925c4.989 19.18 17.21 29.85 30.49 36.13z" enable-background="new" fill="#dd1a1b"/></g></g><g transform="matrix(1.657 0 0 -1.657 -104.2 504.1)" enable-background="new"><path d="m105.6 290.2 1.68-1.803m-8.87 1.577c0.0198-1.332 0.39-1.783 1.474-1.762m1.476 1.782c-0.021-1.331-0.3892-1.803-1.455-1.782" fill="none" stroke="#151142" stroke-linejoin="round" stroke-miterlimit="10" stroke-width=".3076"/></g><path d="m34.38 7.962 2.206-0.0348-0.0663 1.969-2.14-1e-5 5e-5 3.293 2.717 0.0349-0.0333-1.868 2.105-0.0348 0.0329 1.903 2.039 5e-5 2e-5 2.004-2.039-1e-5 1e-5 1.866-2.105 0.0348 2e-5 -1.867-2.717 1e-5 -5e-5 11.98-0.9494 0.9181-0.9183-0.9181-2e-5 -11.98-2.886-0.0333 1e-5 1.866-2.037 0.0348-0.0348-1.867-2.037-0.0334-0.0334-2.004 2.105-0.0349-0.0348-1.833 2.039-0.0348 0.0326 1.868 2.886 5e-5 1e-5 1e-3 -0.0348-3.295-2.105 1e-5 3e-5 -1.969 2.14 0.0349 1.4e-4 -0.0696-0.0347-2.274 1.903 0.0334z" enable-background="new" fill="#fff"/><g transform="matrix(1.657 0 0 -1.657 -104.2 504.1)" enable-background="new"><path d="m83.61 299.4 1.331 0.021-0.04-1.188h-1.291v-1.987l1.639-0.021-0.0201 1.127 1.27 0.021 0.0198-1.148h1.23v-1.209h-1.23v-1.126l-1.27-0.021v1.127h-1.639v-7.231l-0.5729-0.5539-0.5541 0.5539v7.231l-1.741 0.0201v-1.126l-1.229-0.021-0.021 1.127-1.229 0.0201-0.0201 1.209 1.27 0.021-0.021 1.106 1.23 0.021 0.0198-1.127h1.741v-9e-4l-0.021 1.988h-1.27v1.188l1.291-0.021v0.042l-0.021 1.372 1.148-0.0201z" fill="none" stroke="#151142" stroke-linejoin="round" stroke-miterlimit="3.864" stroke-width=".3076"/></g><path d="m47.02 28.71 10.25-2.039c2.378 2.48 6.112 2.548 8.083-0.1687 3.631 0.7804 10.25 1.969 10.25 1.969l-2e-5 -21.22-28.59-6e-5z" enable-background="new" fill="#fff" fill-rule="evenodd"/><g transform="matrix(1.657 0 0 -1.657 -104.2 504.1)" enable-background="new"><path d="m91.23 286.8 6.186 1.23c1.435-1.496 3.688-1.537 4.877 0.1018 2.191-0.4709 6.187-1.188 6.187-1.188v12.8h-17.25z" fill="none" stroke="#151142" stroke-linejoin="round" stroke-miterlimit="3.864" stroke-width=".3076"/></g><path d="m89.9 8.303 2.208-0.0352-0.0682 1.969-2.14 2e-5 8e-5 3.294 2.717 0.0348-0.0348-1.868 2.107-0.0326 0.033 1.901 2.037 5e-5 3e-5 2.002-2.037 4e-5v1.868l-2.105 0.0329 7e-5 -1.866-2.717 4e-5 -2e-5 11.98-0.9513 0.9166-0.915-0.9164 1e-5 -11.98-2.889-0.0348v1.868l-2.035 0.0329-0.0349-1.866-2.036-0.0348-0.0363-2.002 2.107-0.0348-0.0348-1.833 2.037-0.0327 0.0333 1.866 2.889-8e-5 -4.2e-4 -0.0192-0.0348-3.274-2.103-1e-5 -1e-5 -1.969 2.138 0.0353-1.4e-4 -0.0699-0.0348-2.274 1.901 0.0348z" enable-background="new" fill="#fff"/><g transform="matrix(1.657 0 0 -1.657 -104.2 504.1)" enable-background="new"><path d="m117.1 299.2 1.332 0.0212-0.0411-1.188h-1.291v-1.987l1.639-0.021-0.021 1.127 1.271 0.0199 0.0198-1.147h1.229v-1.208h-1.229v-1.127l-1.27-0.0198v1.126h-1.639v-7.231l-0.574-0.5531-0.5519 0.5531v7.231l-1.743 0.021v-1.127l-1.228-0.0198-0.021 1.126-1.228 0.021-0.0218 1.208 1.271 0.021-0.021 1.106 1.229 0.0199 0.0201-1.126h1.743v0.0119l-0.021 1.975h-1.269v1.188l1.29-0.0212v0.0422l-0.021 1.372 1.147-0.021z" fill="none" stroke="#151142" stroke-linejoin="round" stroke-miterlimit="3.864" stroke-width=".3076"/></g><path d="m48.95 9.184 2.547-2.377s2.039 0.7808 3.736-0.0677c1.697-0.8485 5.804-0.6117 6.043 0.4078 1.255-0.6798 2.445-1.528 5.331-0.5108 2.885 1.02 4.345 0.1707 4.345 0.1707l2.616 2.377-7e-3 17.01c-1.424 0.169-5.665-0.608-7.021-1.628-1.359-1.018-2.819-1.018-2.819-1.018 0.101 2.105-0.8489 3.123-2.377 2.954-1.527-0.1692-2.614-0.4079-2.445-2.954-2.886 0.5089-3.225 1.765-5.534 2.206-0.9842 0.1692-4.312 0.5788-4.312 0.5788l-0.1029-17.15z" enable-background="new" fill="#fff" fill-rule="evenodd"/><g transform="matrix(1.657 0 0 -1.657 -104.2 504.1)" enable-background="new"><path d="m92.4 298.6 1.537 1.434s1.23-0.4711 2.254 0.0409c1.024 0.5119 3.502 0.369 3.646-0.2461 0.7571 0.4102 1.475 0.9221 3.216 0.3081 1.741-0.6151 2.622-0.1029 2.622-0.1029l1.578-1.434-4e-3 -10.26c-0.8589-0.102-3.418 0.3668-4.236 0.9819-0.8198 0.614-1.701 0.614-1.701 0.614 0.0609-1.27-0.5122-1.884-1.434-1.782-0.921 0.102-1.577 0.246-1.475 1.782-1.741-0.307-1.946-1.065-3.339-1.331-0.5939-0.1021-2.602-0.3493-2.602-0.3493zm6.003-8.666c1.189 0.3081 1.425 1.407 1.425 1.407 0.0201 0.0618 0.0201 0.1228 0.0201 0.205-1.577 0.3489-1.732-0.0751-3.043-0.915-1.331-0.8399-2.489-0.4692-2.632-0.4692m7.18-0.2279c-1.188 0.3081-1.495 1.394-1.495 1.394-0.0198 0.0609-0.0198 0.123-0.0198 0.2049 1.578 0.3481 1.802-0.062 3.113-0.9019 1.332-0.8399 2.479-0.4811 2.622-0.4811" fill="none" stroke="#151142" stroke-linejoin="round" stroke-miterlimit="3.864" stroke-width=".3076"/></g><path d="m48.95 26.36-2e-5 -17.24 2.547-2.309 0.3417 16.43-2.786 3.022z" enable-background="new" fill="#fff" fill-rule="evenodd"/><g transform="matrix(1.657 0 0 -1.657 -104.2 504.1)" enable-background="new"><path d="m92.4 288.3v10.4l1.537 1.393 0.2061-9.915-1.681-1.823z" fill="none" stroke="#151142" stroke-linejoin="round" stroke-miterlimit="3.864" stroke-width=".3076"/></g><path d="m73.57 9.184-2.548-2.376-0.2368 16.4 2.784 2.988z" enable-background="new" fill="#fff" fill-rule="evenodd"/><g transform="matrix(1.657 0 0 -1.657 -104.2 504.1)" enable-background="new"><path d="m107.3 298.6-1.537 1.434-0.1429-9.894 1.68-1.803zm-7.416 1.245v-8.312" fill="none" stroke="#151142" stroke-linejoin="round" stroke-miterlimit="3.864" stroke-width=".3076"/></g><g transform="matrix(1.657 0 0 -1.657 -107.8 488.2)" enable-background="new"><path d="m126.2 293-48.49 8e-4 -0.083-17.27c0.0431-16.08 4.364-34.15 24.67-42.65 15.53 7.129 23.97 20.67 23.89 42.8 0.0139 15.72 0.0202 17.13 0.0202 17.13z" fill="none" stroke="#151142" stroke-miterlimit="10" stroke-width=".9227"/></g><path d="m61.72 31.35-1e-5 26.95-29.88-0.0333-0.4294-5e-3c-1.348-4.815-3.212-13.5-2.523-26.89l32.83-0.025z" enable-background="new" fill="#151142" fill-rule="evenodd"/><path d="m30.6 44.04 29.6 7e-5 -0.7278-1.271-0.9679-0.6051-0.5453-0.4247-0.9066-0.5453-0.1224-0.1808c-0.5188-0.3925-1.19-1.209-1.876-1.695l-0.4226-0.4226-0.6664-0.1808-0.6662 0.0616-0.544 0.1802-0.547 0.4244c-1.934 1.273-1.498 0.7225-3.873 1.089l-0.3632-0.7874-0.3029-0.4839-0.7263-0.726-0.4823-0.6049-0.4243-0.545-0.4242-0.4228-0.5455-0.7889c-1.532 0.0134-2.852 0.2303-3.631 1.696l-0.8472 0.4242-0.6065 0.847-0.4243 0.3628-0.3034 0.7874-0.605 0.1809-0.5437 0.1823-0.6046-0.7875-0.3633-0.1212-1.815 0.0615-1.029 0.726-1.027 0.4228-0.6678 0.4242-0.3632 0.5451-0.4857 0.6647-0.8467 0.6066z" enable-background="new" fill="#fcffff"/><g fill="#151142"><path d="m35.7 41.01 0.4245 0.1257 0.5914 0.0847 0.5933-0.3384-0.5933-0.0844-0.3384-0.295h-0.3396l-0.4625 0.4639z" enable-background="new"/><path d="m43.37 38.07 0.4926 0.3927 0.5382-0.0997 0.3436 1e-5 0.4918 0.2952c0.2904-1.008-0.565-1.117-1.229-1.523l-0.4413 0.3447-0.4886 0.1953-0.1016 0.4426z" enable-background="new"/><path d="m53.67 40.68-0.8373 5e-5 -0.1837-0.4158 0.6945-0.4176 0.3692-0.2322 0.607 0.3692 0.3231 0.095 0.0927 0.4623 7e-5 0.2322z" enable-background="new"/></g><g transform="matrix(1.657 0 0 -1.657 -104.2 504.1)" enable-background="new"><path d="m92.63 284.1v-7.225h-4.662v7.225h-0.5649v-12.66h0.5649v4.874h4.662v-4.874h0.566v12.66z" fill="none" stroke="#151142" stroke-width=".6803"/></g><g><path d="m49.33 33.34-7e-5 11.97-7.727-4e-5 -2e-5 -11.97-0.9364 1e-5 -1e-5 20.99 0.9364-2e-5 6e-5 -8.078 7.727 4e-5 4e-5 8.078 0.9383-2e-5 -1e-4 -20.99z" enable-background="new" fill="#fcffff"/><path d="m85.2 39.89c-0.3911-0.4854-0.8022-0.9002-1.21-1.25l0.6683-0.7475c0.434 0.3849 0.8656 0.8468 1.258 1.396zm-5.473 4.59c-0.1634-0.1634-0.3318-0.3332-0.5314-0.4975l4.375-4.873c0.3906 0.3302 0.7826 0.7204 1.15 1.182zm-2.063-1.452 3.326-5.43c0.4143 0.1522 1.024 0.421 1.697 0.8583l-4.394 4.899c-0.1972-0.1124-0.409-0.2223-0.6295-0.328zm4.173-6.812c0.444 0.156 1.168 0.4628 1.961 1.005l-0.6826 0.7607c-0.691-0.4604-1.33-0.7523-1.79-0.928zm8.143 1.519 0.4655-0.4309-1.172-1.272-0.4673 0.429 0.2086 0.2294-2.622 2.198c-0.4164-0.5748-0.8621-1.057-1.316-1.461l1.621-1.804 0.2431 0.2243 0.4262-0.4674-1.275-1.167-0.4276 0.466 0.2284 0.2076-1.671 1.861c-0.8071-0.5586-1.55-0.8918-2.052-1.077l0.693-1.132 0.2934 0.1803 0.3348-0.5385-1.468-0.9118-0.3365 0.537 0.2522 0.156-5.3 8.652c-0.6465-0.2222-1.386-0.4124-2.241-0.56-1.914-0.3298-3.335-0.3317-4.399-0.1443l1.23-6.859 0.3298 0.0677 0.1258-0.6197-1.718-0.3548-0.1278 0.6198 0.3218 0.0667-1.328 7.402c-1.643 0.6643-1.994 1.883-2.296 2.378-0.1161 0.1856-0.7028 1.24 0.0794 1.482l0.4143 0.1326c-0.8322 2.257-1.064 6.658-1.112 7.797-0.3147 0.4047-0.4209 0.8321-0.2286 1.024 0.2254 0.2256 0.6181-0.1192 1.079-0.5801 0.4593-0.4607 0.8118-0.8617 0.585-1.087-0.0728-0.0715-0.1806-0.0976-0.305-0.0911 0.1244-2.069 0.4544-5.489 1.104-6.935 0.6898 0.0394 1.601 0.1855 2.261 0.8433 1.023 1.023 2.612 2.882 6.139 2.962 3.527 0.0814 4.576-1.642 4.499-2.37-0.0382-0.335-0.0315-1.336-0.6714-2.431l9.378-7.863z" enable-background="new" fill="#dd1a1b"/><path d="m50.34 81.09c-0.1226-2.037-0.1757-3.355-0.2289-4.628-0.0215-0.5451 0.4558-0.4937 0.8073-0.4393 2.936 0.4575 4.321 0.6682 4.321 0.6682-1.054-1.986-0.3135-2.1 0.2634-2.582 3.303-2.758 4.006-3.353 4.006-3.353-1.528-0.5206-1.318-0.328-0.3336-3.989-3.189 1.011-2.925 0.7108-3.601-0.8602 0 0-0.247 0.28-2.241 2.531-0.28 0.3149-0.756 0.1025-0.6563-0.388 1.036-5.129 1.087-5.34 1.087-5.34-2.019 1.219-1.942 1.288-2.264 0.6596-1.109-2.161-1.636-3.224-1.636-3.224s-0.5253 1.063-1.631 3.224c-0.3233 0.6283-0.2472 0.56-2.265-0.6595 0 0 0.0516 0.21 1.087 5.34 0.0993 0.4904-0.3762 0.7028-0.658 0.388-1.994-2.251-2.241-2.531-2.241-2.531-0.6746 1.571-0.4111 1.871-3.6 0.8603 0.983 3.661 1.194 3.469-0.3311 3.989 0 0 0.7009 0.5952 4.004 3.353 0.5766 0.4823 1.314 0.5965 0.2637 2.582 0 0 1.386-0.2107 4.321-0.6683 0.3513-0.0543 0.8288-0.1057 0.8071 0.4394-0.0529 1.273-0.1061 2.59-0.2287 4.628z" enable-background="new" fill="#dd1a1b"/><path d="m91.09 58.21-0.1011 0.3398c-5.027 17.25-16.1 28.8-29.17 35.83l-0.033-0.5821-0.0681-35.14-4e-5 -0.406z" enable-background="new" fill="#151142"/><path d="m80.03 63.53c-2.564-2.879-7.75-2.446-11.58 0.9645-3.829 3.412-4.855 8.514-2.289 11.39 2.568 2.879 7.75 2.446 11.58-0.9664 3.83-3.411 4.855-8.516 2.287-11.39" enable-background="new" fill="#fcffff"/></g><g transform="matrix(1.657 0 0 -1.657 -104.2 504.1)" enable-background="new" fill="none" stroke="#151142"><path d="m111.2 265.8c-1.547 1.737-4.676 1.476-6.986-0.582-2.31-2.059-2.929-5.137-1.381-6.875 1.549-1.737 4.676-1.476 6.987 0.5831 2.311 2.058 2.929 5.138 1.38 6.874z" stroke-width=".4847"/><path d="m102.8 258.4c8e-3 -8e-3 0.017-0.0142 0.0241-0.023 1.512-0.2832 3.643 0.4788 5.465 2.104 1.987 1.769 2.998 4.021 2.662 5.588" stroke-width=".4569"/></g></g><g transform="matrix(1.333 0 0 -1.333 0 360)" display="none"><rect transform="matrix(-1 0 .7071 .7071 0 0)" x="219" y="160.1" width="15" height="317.1" fill="#dd1a1b" stroke-width=".727"/><rect transform="matrix(.7071 -.7071 -.7071 -.7071 0 0)" x="-149.2" y="-300.7" width="22.5" height="225" display="inline" fill="#151142" stroke-width=".75"/><rect transform="matrix(.4961 -.8682 -.4961 -.8682 0 0)" x="-197.1" y="-313.1" width="28.63" height="286.3" display="inline" fill="#fff" stroke-width=".808"/><g stroke-width=".727"><rect transform="matrix(-1 0 .7071 .7071 0 0)" x="211.1" y="253.1" width="7.947" height="168" display="inline" fill="#fff"/><rect transform="matrix(-1 0 .7071 .7071 0 0)" x="156.3" y="114.6" width="15" height="317.1" display="inline" fill="#dd1a1b"/><rect transform="matrix(-1 0 .7071 .7071 0 0)" x="171.3" y="226.5" width="7.947" height="168" display="inline" fill="#fff"/><rect transform="matrix(-1 0 .7071 .7071 0 0)" x="-55.81" y="-112" width="15" height="317.1" display="inline" fill="#dd1a1b"/></g><rect transform="matrix(.7071 -.7071 -.7071 -.7071 0 0)" x="45.07" y="-222.9" width="22.5" height="225" display="inline" fill="#151142" stroke-width=".75"/><g stroke-width=".727"><rect transform="matrix(-1 0 .7071 .7071 0 0)" x="-63.76" y="-19.07" width="7.947" height="168" display="inline" fill="#fff"/><rect transform="matrix(-1 0 .7071 .7071 0 0)" x="-118.5" y="-157.5" width="15" height="317.1" display="inline" fill="#dd1a1b"/><rect transform="matrix(-1 0 .7071 .7071 0 0)" x="-103.5" y="-45.59" width="7.947" height="168" display="inline" fill="#fff"/></g></g><g><g fill-rule="evenodd"><path d="m-93.65 181-56.85-56.81-20.34 20.14c-18.8 18.9-34.91 45.14-21.08 78.9 26.55 9.843 52.32 3.864 78.15-22.16 18.4-18.4 20.12-20.07 20.12-20.07" fill="#fcffff"/><path d="m-170.9 144.5 51.4 51.31-0.2418 0.2858c-6.746 7.564-13.76 12.75-20.65 17l4.946 4.946 0.156 0.2216c6.938-4.203 14.19-9.776 21.41-17.05 18.53-18.68 20.18-20.17 20.18-20.17l-56.85-56.81z" fill="#dd1a1b"/><path d="m-191.9 223.3c-9.24-22.54-5.112-41.75 4.254-57.65l0.2884 0.2439 4.897 4.897c-10.04 17.09-8.933 33.28-3.987 47.1z" fill="#dd1a1b"/></g><g transform="matrix(1.172 1.172 1.172 -1.172 -593.6 390.3)"><path d="m105.6 290.2 1.68-1.803m-8.87 1.577c0.0198-1.332 0.39-1.783 1.474-1.762m1.476 1.782c-0.021-1.331-0.3892-1.803-1.455-1.782" fill="none" stroke="#151142" stroke-linejoin="round" stroke-miterlimit="10" stroke-width=".3076"/></g><path d="m-144.8 137.4 1.584 1.535-1.439 1.345-1.513-1.513-2.329 2.329 1.896 1.946 1.297-1.344 1.513 1.464-1.322 1.369 1.441 1.442-1.417 1.417-1.441-1.442-1.319 1.319-1.513-1.464 1.321-1.32-1.921-1.921-8.475 8.474-1.321-0.0221-1.4e-4 -1.299 8.474-8.474-2.017-2.064-1.319 1.319-1.465-1.415 1.296-1.345-1.417-1.464 1.393-1.441 1.513 1.464 1.272-1.321 1.466 1.417-1.298 1.344 2.041 2.041-9.2e-4 9.4e-4 2.305-2.355-1.488-1.488 1.392-1.392 1.488 1.538 0.0493-0.0491 1.583-1.632 1.322 1.369z" fill="#fff"/><g transform="matrix(1.172 1.172 1.172 -1.172 -593.6 390.3)"><path d="m83.61 299.4 1.331 0.021-0.04-1.188h-1.291v-1.987l1.639-0.021-0.0201 1.127 1.27 0.021 0.0198-1.148h1.23v-1.209h-1.23v-1.126l-1.27-0.021v1.127h-1.639v-7.231l-0.5729-0.5539-0.5541 0.5539v7.231l-1.741 0.0201v-1.126l-1.229-0.021-0.021 1.127-1.229 0.0201-0.0201 1.209 1.27 0.021-0.021 1.106 1.23 0.021 0.0198-1.127h1.741v-9e-4l-0.021 1.988h-1.27v1.188l1.291-0.021v0.042l-0.021 1.372 1.148-0.0201z" fill="none" stroke="#151142" stroke-linejoin="round" stroke-miterlimit="3.864" stroke-width=".3076"/></g><path d="m-150.5 161 8.692 5.808c-0.072 3.435 2.52 6.124 5.835 5.596 2.016 3.12 5.859 8.643 5.859 8.643l15.01-15.01-20.22-20.22z" fill="#fff" fill-rule="evenodd"/><g transform="matrix(1.172 1.172 1.172 -1.172 -593.6 390.3)"><path d="m91.23 286.8 6.186 1.23c1.435-1.496 3.688-1.537 4.877 0.1018 2.191-0.4709 6.187-1.188 6.187-1.188v12.8h-17.25z" fill="none" stroke="#151142" stroke-linejoin="round" stroke-miterlimit="3.864" stroke-width=".3076"/></g><path d="m-105.8 176.9 1.586 1.536-1.44 1.344-1.513-1.513-2.329 2.329 1.896 1.945 1.296-1.346 1.513 1.467-1.321 1.367 1.44 1.44-1.416 1.416-1.441-1.44-1.321 1.321-1.512-1.465 1.32-1.32-1.921-1.921-8.475 8.475-1.321-0.0245 1e-3 -1.295 8.475-8.475-2.018-2.067-1.321 1.321-1.462-1.416 1.295-1.344-1.415-1.464 1.39-1.442 1.514 1.465 1.272-1.321 1.463 1.417-1.296 1.343 2.043 2.043 0.0133-0.0139 2.29-2.34-1.487-1.487 1.392-1.392 1.487 1.537 0.0493-0.0495 1.583-1.633 1.32 1.369z" fill="#fff"/><g transform="matrix(1.172 1.172 1.172 -1.172 -593.6 390.3)"><path d="m117.1 299.2 1.332 0.0212-0.0411-1.188h-1.291v-1.987l1.639-0.021-0.021 1.127 1.271 0.0199 0.0198-1.147h1.229v-1.208h-1.229v-1.127l-1.27-0.0198v1.126h-1.639v-7.231l-0.574-0.5531-0.5519 0.5531v7.231l-1.743 0.021v-1.127l-1.228-0.0198-0.021 1.126-1.228 0.021-0.0218 1.208 1.271 0.021-0.021 1.106 1.229 0.0199 0.0201-1.126h1.743v0.0119l-0.021 1.975h-1.269v1.188l1.29-0.0212v0.0422l-0.021 1.372 1.147-0.021z" fill="none" stroke="#151142" stroke-linejoin="round" stroke-miterlimit="3.864" stroke-width=".3076"/></g><path d="m-135.4 148.6 3.482 0.1205s0.8893 1.994 2.69 2.594c1.8 0.5999 4.537 3.672 3.985 4.561 1.368 0.4066 2.81 0.6482 4.131 3.408 1.319 2.761 2.952 3.193 2.952 3.193l0.1688 3.53-12.03 12.02c-1.126-0.8871-3.576-4.436-3.814-6.115-0.2412-1.68-1.274-2.713-1.274-2.713-1.417 1.56-2.808 1.608-3.769 0.4081-0.9599-1.199-1.56-2.137 0.3597-3.818-2.4-1.681-3.529-1.033-5.473-2.353-0.8156-0.5763-3.459-2.64-3.459-2.64l12.05-12.2z" fill="#fff" fill-rule="evenodd"/><g transform="matrix(1.172 1.172 1.172 -1.172 -593.6 390.3)"><path d="m92.4 298.6 1.537 1.434s1.23-0.4711 2.254 0.0409c1.024 0.5119 3.502 0.369 3.646-0.2461 0.7571 0.4102 1.475 0.9221 3.216 0.3081 1.741-0.6151 2.622-0.1029 2.622-0.1029l1.578-1.434-4e-3 -10.26c-0.8589-0.102-3.418 0.3668-4.236 0.9819-0.8198 0.614-1.701 0.614-1.701 0.614 0.0609-1.27-0.5122-1.884-1.434-1.782-0.921 0.102-1.577 0.246-1.475 1.782-1.741-0.307-1.946-1.065-3.339-1.331-0.5939-0.1021-2.602-0.3493-2.602-0.3493zm6.003-8.666c1.189 0.3081 1.425 1.407 1.425 1.407 0.0201 0.0618 0.0201 0.1228 0.0201 0.205-1.577 0.3489-1.732-0.0751-3.043-0.915-1.331-0.8399-2.489-0.4692-2.632-0.4692m7.18-0.2279c-1.188 0.3081-1.495 1.394-1.495 1.394-0.0198 0.0609-0.0198 0.123-0.0198 0.2049 1.578 0.3481 1.802-0.062 3.113-0.9019 1.332-0.8399 2.479-0.4811 2.622-0.4811" fill="none" stroke="#151142" stroke-linejoin="round" stroke-miterlimit="3.864" stroke-width=".3076"/></g><path d="m-147.5 160.7 12.19-12.19 3.434 0.1684-11.38 11.86-4.107 0.1666z" fill="#fff" fill-rule="evenodd"/><g transform="matrix(1.172 1.172 1.172 -1.172 -593.6 390.3)"><path d="m92.4 288.3v10.4l1.537 1.393 0.2061-9.915-1.681-1.823z" fill="none" stroke="#151142" stroke-linejoin="round" stroke-miterlimit="3.864" stroke-width=".3076"/></g><path d="m-118 166-0.1213-3.482-11.76 11.43-0.1444 4.082z" fill="#fff" fill-rule="evenodd"/><g transform="matrix(1.172 1.172 1.172 -1.172 -593.6 390.3)"><path d="m107.3 298.6-1.537 1.434-0.1429-9.894 1.68-1.803zm-7.416 1.245v-8.312" fill="none" stroke="#151142" stroke-linejoin="round" stroke-miterlimit="3.864" stroke-width=".3076"/></g><g transform="matrix(1.172 1.172 1.172 -1.172 -584.9 376.5)"><path d="m126.2 293-48.49 8e-4 -0.083-17.27c0.0431-16.08 4.364-34.15 24.67-42.65 15.53 7.129 23.97 20.67 23.89 42.8 0.0139 15.72 0.0202 17.13 0.0202 17.13z" fill="none" stroke="#151142" stroke-miterlimit="10" stroke-width=".9227"/></g><g><path d="m-202.2 191.6c-2.616-2.573-5.76-4.57-5.792-4.589l-0.4617-0.291-0.072 0.5392c-0.3271 2.427-0.2079 6.084-0.2027 6.238l0.0147 0.4446 6.946-1.917-0.4326-0.4251z" fill="#dd1a1b" fill-rule="evenodd"/><path d="m-160.9 232.9-1.914 6.949 0.4432 0.0139c0.1535 4e-3 3.811 0.1244 6.237-0.2037l0.5392-0.0728-0.2911-0.4616c-0.0187-0.0303-2.016-3.176-4.589-5.792l-0.425-0.4327z" fill="#dd1a1b" fill-rule="evenodd"/><path d="m-154.7 250.2-0.3081-0.2473c-1.368-1.089-1.963-2.202-1.768-3.308 0.2872-1.623 2.26-2.979 3.979-3.562l0.8072-0.2564c-1.616-5.083-7.72-12.03-10.89-14.05l-0.3788 0.5967-0.8916 1.33c-1.054 1.605-1.965 2.99-3.271 3.128-1.114 0.1205-2.519-0.6694-4.297-2.414l-0.151-0.1492-3.027 0.4653-0.5533 5.74c3.85 1.236 8.691 2.293 11.7 2.345l0.3227-0.0133 0.0893-0.333c0.6372-1.781 1.902-6.698 2.157-7.678 2.28 2.174 4.967 5.452 6.663 8.486-14.73 1.595-28.29-3.091-40.33-13.94-11.07-11.97-15.89-25.63-14.32-40.6l1e-5 -0.0703 9.1e-4 -9.2e-4c3.048 1.691 6.354 4.4 8.545 6.696-0.9808 0.2546-5.896 1.52-7.679 2.157l-0.3329 0.0889-0.0133 0.3225c0.0507 3.011 1.109 7.852 2.347 11.7l5.739-0.5546 0.4643-3.028-0.1478-0.1498c-1.745-1.778-2.535-3.182-2.415-4.298 0.1381-1.306 1.524-2.217 3.128-3.271l1.331-0.8907 0.5957-0.3797c-2.022-3.17-8.966-9.273-14.05-10.89l-0.2847 0.8986-7.4e-4 -6.7e-4 -0.124 0.3914c-0.5512 1.73-1.882 3.731-3.509 4.043-1.106 0.2107-2.235-0.3716-3.349-1.735l-0.2553-0.3142-2.396 1.798-0.016 0.1877c-1.045 12.27 3.021 31.9 17.91 46.84 15.08 14.69 34.2 18.6 47.06 17.36l0.1944-0.0167 1.709-2.43z" fill="#151142"/><path d="m-168.7 252.8s-3.757-0.1733-10.28-2.166c-1.866 3.659-4.405 7.544-8.216 9.46 7.868-0.9456 9.935-0.3712 18.5-7.294" fill="#151142" fill-rule="evenodd"/></g><g fill="#fcffff"><path d="m-214.5 204.8-0.0253 0.1386c-0.0467-3e-3 -0.1372 0.0175-0.2719 0.0585-0.0827 0.0269-0.1548 0.1335-0.211 0.3209-0.056 0.1868-0.092 0.4186-0.1093 0.693-0.0147 0.2751 0 0.5824 0.0333 0.9186 0.0347 0.3376 0.104 0.6692 0.2064 0.9964 0.1945 0.6259 0.4125 1.062 0.6493 1.308 0.2378 0.2492 0.4945 0.3282 0.7721 0.2426 0.158-0.0507 0.2298-0.2109 0.2076-0.4842-0.0213-0.2744-0.072-0.6069-0.1548-1.003-0.0827-0.396-0.1687-0.8225-0.2589-1.278-0.0933-0.4561-0.1375-0.8966-0.1362-1.317 1e-5 -0.4232 0.08-0.7972 0.231-1.124 0.1513-0.3272 0.428-0.5522 0.83-0.6778 0.3101-0.0969 0.6209-0.1125 0.9281-0.0491 0.3115 0.0631 0.5987 0.198 0.8647 0.4028 0.2659 0.2054 0.5111 0.4784 0.7328 0.8216 0.2215 0.3413 0.4041 0.7419 0.5457 1.2 0.132 0.4257 0.2289 0.8308 0.2896 1.215 0.0587 0.3821 0.1 0.7282 0.1213 1.031 0.02 0.3036 0.032 0.5603 0.0387 0.7701 0.0133 0.2087 0.0213 0.3539 0.048 0.437 0.0253 0.0844 0.064 0.1441 0.12 0.1825 0.052 0.0392 0.1107 0.0704 0.1732 0.0963l-0.0133 0.1521-2.015-0.3172 0.0307-0.1715 0.1383-0.0416c0.076-0.0247 0.1276-0.1305 0.1561-0.3177 0.0307-0.1876 0.0373-0.415 0.0213-0.6857-0.0133-0.2697-0.0493-0.5652-0.104-0.8846-0.0547-0.3224-0.1253-0.6296-0.2167-0.9205-0.169-0.5411-0.3504-0.9012-0.543-1.079-0.1925-0.1774-0.361-0.2438-0.5037-0.1993-0.1844 0.0576-0.2731 0.2238-0.266 0.5008 0.0133 0.2774 0.056 0.6138 0.1415 1.007 0.0853 0.395 0.1795 0.8238 0.2767 1.287 0.0973 0.4631 0.1396 0.9082 0.1267 1.334-0.0147 0.4256-0.116 0.8076-0.3044 1.146-0.1901 0.3376-0.5241 0.58-1.001 0.7289-0.268 0.0835-0.5565 0.1113-0.8633 0.0835-0.3073-0.0281-0.612-0.1428-0.9143-0.3468-0.3036-0.2027-0.5916-0.51-0.8669-0.9236-0.2772-0.4127-0.5197-0.9575-0.7303-1.632-0.1641-0.5277-0.2767-0.9891-0.3357-1.385-0.0587-0.3997-0.0933-0.7432-0.1013-1.035-0.0133-0.2906 0-0.522 0-0.6939 0.0133-0.1722 0-0.295-0.02-0.3714-0.0173-0.0491-0.0453-0.0879-0.092-0.1152-0.0453-0.0277-0.0947-0.0547-0.1488-0.0829l-0.0133-0.1617z"/><path d="m-207 217.8-0.0667-0.1393c0.104-0.0689 0.1687-0.1289 0.1926-0.1799 0.024-0.0496 0.0227-0.1067-0.0133-0.1702l-1.85-3.912-1.052 0.497 1.246 2.634c0.0293 0.0645 0.0707 0.1033 0.1213 0.1176 0.0507 0.0149 0.1336 5e-3 0.2529-0.0329l0.0653 0.141-2.004 0.9468-0.068-0.1404c0.128-0.0787 0.205-0.1446 0.2286-0.1935 0.0227-0.0517 0.024-0.1077-0.0133-0.1715l-1.245-2.634-1.984 0.9388c-0.0547 0.0265-0.0907 0.0656-0.1121 0.1178-0.0173 0.0527 1.3e-4 0.1568 0.056 0.3149l-0.1409 0.0657-1.175-2.486 0.1419-0.0668c0.088 0.144 0.1558 0.2237 0.2098 0.2426 0.052 0.0185 0.1054 0.0141 0.1615-0.012l5.547-2.621c0.056-0.0257 0.092-0.0657 0.1104-0.1189 0.0187-0.0516 0-0.1566-0.0533-0.3138l0.1392-0.0669 2.868 6.067c0.0293 0.0623 0.0747 0.1008 0.132 0.1116 0.06 0.0107 0.1605-8e-3 0.3023-0.0565l0.0653 0.1407-2.076 0.9808z"/><path d="m-202.1 222.5c0.0495-0.0354 0.0813-0.0799 0.0933-0.1325 0.0133-0.0561-0.024-0.1571-0.1027-0.3038l0.1333-0.0899 1.511 2.232-0.1334 0.0904c-0.1067-0.1279-0.1873-0.1967-0.2437-0.2087-0.0533-9e-3 -0.1067 4e-3 -0.157 0.0372l-2.922 1.977c-0.4807 0.3259-0.9376 0.5207-1.371 0.5861-0.4315 0.0659-0.8369 0.0283-1.217-0.1104-0.3797-0.1377-0.7372-0.3617-1.072-0.6662-0.334-0.3087-0.6411-0.6671-0.9203-1.08-0.2776-0.4113-0.4977-0.8309-0.6571-1.255-0.1608-0.423-0.2347-0.839-0.2218-1.243 0.0133-0.403 0.1307-0.7933 0.352-1.17 0.2226-0.3774 0.5731-0.7278 1.052-1.052l2.923-1.978c0.0507-0.0317 0.0826-0.0769 0.092-0.1328 0.0133-0.0545-0.024-0.1554-0.1027-0.3022l0.132-0.09 1.511 2.233-0.1333 0.09c-0.1053-0.1266-0.1876-0.197-0.2425-0.2074-0.0547-9e-3 -0.108 3e-3 -0.1594 0.0352l-2.918 1.976c-0.4207 0.2844-0.64 0.6093-0.6613 0.97-0.02 0.362 0.1187 0.7608 0.4128 1.195 0.2939 0.4351 0.6137 0.7105 0.9564 0.8276 0.3432 0.116 0.7252 0.0316 1.146-0.2531z"/><path d="m-192 236.1 1.817 1.247c0.3177 0.2194 0.5764 0.3092 0.7771 0.2707 0.2017-0.0375 0.3572-0.1371 0.4676-0.2966 0.108-0.1591 0.1477-0.3398 0.1093-0.5403-0.036-0.2025-0.2145-0.4112-0.5307-0.6291l-1.817-1.249zm-2.04 2.971c-0.0333 0.0527-0.048 0.1039-0.036 0.1604 0.0133 0.0539 0.0787 0.1349 0.2036 0.2436l-0.0893 0.1313-2.22-1.526 0.0893-0.1313c0.1476 0.0797 0.2459 0.1149 0.3009 0.1044 0.0547-0.0107 0.1-0.0411 0.135-0.0924l3.474-5.056c0.0333-0.0507 0.0467-0.1028 0.036-0.1584-0.0133-0.0552-0.0773-0.136-0.2053-0.2446l0.0907-0.13 3.954 2.714c0.7983 0.5498 1.277 1.095 1.436 1.635 0.1607 0.5402 0.0253 1.118-0.3951 1.733-0.3421 0.499-0.757 0.7898-1.243 0.8732-0.4867 0.0808-0.994 0.0279-1.525-0.1558l0.036 2.677c1e-5 0.1901 0.0587 0.3258 0.179 0.409l-0.0893 0.1336-2.248-1.544 0.0893-0.1312c0.1687 0.0935 0.2928 0.0817 0.3713-0.034 0.0133-0.0133 0.0173-0.0835 0.0187-0.21-2e-5 -0.1267 1e-3 -0.2811 0-0.464 0-0.1805-0.0133-0.3794-0.0173-0.5931-0.0133-0.211-0.0133-0.4172-0.0227-0.6128-0.0133-0.198-0.0133-0.3716-0.016-0.5227-1e-3 -0.1502-1e-3 -0.2521 0-0.3024l-1.06-0.7269z"/><path d="m-179.7 241.9-0.1396-0.0691c0.0387-0.1186 0.052-0.2042 0.04-0.2604-0.0133-0.0549-0.052-0.0963-0.1146-0.1272l-3.891-1.896-0.5157 1.062 2.616 1.275c0.0613 0.0292 0.1187 0.034 0.1673 0.0153 0.0493-0.0185 0.108-0.0821 0.1769-0.184l0.1385 0.068-0.9679 1.987-0.1383-0.0677c0.048-0.1442 0.0667-0.2401 0.0547-0.2963-0.0133-0.0528-0.0507-0.0973-0.112-0.1293l-2.616-1.275-0.9657 1.983c-0.028 0.0552-0.0307 0.1103-0.0133 0.1631 0.0187 0.0536 0.0973 0.1233 0.2406 0.2119l-0.0693 0.1396-2.475-1.206 0.0667-0.1391c0.1572 0.0561 0.2625 0.0748 0.3165 0.0581 0.0507-0.0184 0.092-0.056 0.119-0.1105l2.694-5.526c0.028-0.0552 0.032-0.1112 0.0133-0.1631-0.0173-0.0527-0.0987-0.1241-0.2392-0.2106l0.0667-0.1418 6.035 2.94c0.0627 0.0329 0.1213 0.0329 0.1747 7e-3 0.0507-0.0296 0.12-0.1052 0.2017-0.2323l0.138 0.0679z"/><path d="m-173 244.7-0.1013-0.1291c0.0159-0.0216 0.0307-0.0471 0.044-0.0748 0.0148-0.0275 0.0267-0.0641 0.04-0.1055 0.0187-0.0584-0.0173-0.1418-0.1067-0.2498-0.0907-0.1059-0.2185-0.2147-0.3891-0.3306-0.1687-0.1123-0.368-0.2273-0.6-0.3422-0.2285-0.1136-0.4747-0.2142-0.7417-0.2986-0.2521-0.0805-0.5229-0.1334-0.8147-0.1629-0.2956-0.0304-0.5756-0.0133-0.8489 0.0469-0.2703 0.0597-0.5141 0.1794-0.7311 0.3538-0.2133 0.1761-0.3737 0.4208-0.4759 0.7381-0.1 0.3166-0.1133 0.6088-0.036 0.8781 0.072 0.2647 0.2037 0.504 0.3904 0.7112 0.1873 0.2066 0.4063 0.381 0.6617 0.5263 0.2568 0.1465 0.5103 0.2591 0.7584 0.3384 0.1093 0.0368 0.2848 0.0696 0.5309 0.1071 0.2461 0.0375 0.4945 0.0609 0.7479 0.0655 0.2541 8e-3 0.4852-3e-3 0.6916-0.0279 0.206-0.026 0.3223-0.0857 0.3539-0.1785 0.0133-0.0423 0.0133-0.0784-1e-5 -0.1076-0.0133-0.0316-0.0147-0.0644-0.02-0.1043l0.164-0.0447 0.6575 2.38-0.1771 0.0409c-2e-5 -0.0465-0.0187-0.0819-0.0427-0.1043-0.028-0.0216-0.06-0.0385-0.1027-0.0528-0.064-0.02-0.1961-0.0219-0.3881-7e-3 -0.1945 0.0168-0.4431 0.024-0.7477 0.0191-0.306-5e-3 -0.6561-0.0328-1.056-0.0807-0.3939-0.0469-0.8251-0.1452-1.291-0.2931-0.4984-0.1608-0.9708-0.3892-1.417-0.6876-0.4443-0.2968-0.8183-0.6493-1.119-1.054-0.3011-0.404-0.5051-0.8565-0.6129-1.356-0.104-0.4983-0.0693-1.028 0.1093-1.588 0.1804-0.5577 0.4545-1.013 0.8323-1.357 0.3751-0.3472 0.8025-0.5968 1.284-0.7501 0.4793-0.1586 0.9893-0.2273 1.525-0.2146 0.5345 0.0141 1.052 0.1009 1.553 0.2615 0.5004 0.158 0.9208 0.3234 1.265 0.492 0.3444 0.1691 0.6319 0.3294 0.8604 0.4738 0.2193 0.1441 0.3878 0.2614 0.5074 0.3478 0.1187 0.088 0.2109 0.1431 0.2764 0.1666 0.076 0.0247 0.149 0.0107 0.2192-0.0412l0.1253 0.0812z"/></g><g><path d="m-221.7 199.9s0.1748 3.759 2.166 10.28c-3.659 1.866-7.544 4.405-9.461 8.215 0.9472-7.868 0.3728-9.934 7.294-18.5" fill="#151142" fill-rule="evenodd"/><path d="m-196.4 230.7c0.0627-1.098-1.071-2.058-2.534-2.142-0.8913-0.0516-1.698 0.2343-2.207 0.714l-0.0853 0.0849c-0.2773 0.2923-0.4476 0.6488-0.4705 1.04-0.028 0.4812 0.1737 0.9352 0.5319 1.301l0.0387 0.0388c0.4612 0.4499 1.163 0.7568 1.963 0.803 0.9133 0.0535 1.739-0.2479 2.246-0.7505 0.3048-0.3005 0.4927-0.6754 0.5161-1.088" fill="#fcffff"/><path d="m-199.2 232.4c-1.13-0.0657-2.047-0.6716-2.339-1.449 0.567 0.4409 1.4 0.735 2.326 0.7985 0.996 0.0676 1.917-0.1524 2.527-0.5697-0.3596 0.7654-1.358 1.286-2.514 1.22zm0.2179-3.793c0.8146 0.0479 1.549 0.3691 2.007 0.8858 0.2601 0.2907 0.3998 0.6175 0.4288 0.9589-0.3996 0.5872-1.474 0.9396-2.636 0.8593-1.065-0.0743-2.012-0.4888-2.44-1.06 0.132-0.9901 1.283-1.722 2.64-1.644zm2.588 2.339c0.0227-0.0924 0.04-0.1878 0.048-0.2848 2.4e-4 -0.0421-0.0133-0.0819-0.0133-0.1243-0.0133-0.415-0.1677-0.8217-0.4807-1.17-0.4935-0.5546-1.273-0.9-2.137-0.9504-1.512-0.0869-2.796 0.7783-2.863 1.928-3e-5 0.1269 0.0133 0.2485 0.028 0.3704 0.1733 0.9893 1.248 1.797 2.594 1.874 1.385 0.0797 2.575-0.6389 2.817-1.643" fill="#151142"/><path d="m-142 173.3-19.06 19.06-21.11-21.15-0.2999-0.3074c2.452-4.357 7.278-11.82 17.23-20.8l23.23 23.2z" fill="#151142" fill-rule="evenodd"/><path d="m-173 160.2 20.93 20.93 0.384-1.413-0.2565-1.112-0.0853-0.6859-0.2555-1.027 0.0413-0.2144c-0.0893-0.6444 0.0133-1.696-0.128-2.526v-0.5976l-0.3433-0.5991-0.5147-0.4275-0.5121-0.2572-0.6869-0.0867c-2.268-0.4673-1.57-0.5484-3.509-1.969l0.3-0.8136 0.128-0.5563-2.7e-4 -1.027 0.0867-0.7687 0.0853-0.6854-1e-3 -0.5989 0.1721-0.9436c-1.093-1.074-2.18-1.854-3.767-1.369l-0.8991-0.2991-1.028 0.17-0.5565-0.0435-0.7713 0.3422-0.5557-0.2999-0.5133-0.2555 0.1293-0.9844-0.1712-0.3425-1.327-1.24-1.241-0.2145-1.025-0.4276-0.7721-0.1723-0.6423 0.1287-0.8135 0.1265-1.028-0.1698z" fill="#fcffff"/></g><g fill="#151142"><path d="m-167.2 161.7 0.2113 0.389 0.3583 0.4781 0.6588 0.1803-0.3599-0.4792-0.0307-0.4479-0.2402-0.2402-0.6551 1e-3z"/><path d="m-159.7 165 0.0707 0.626 0.4511 0.3101 0.2429 0.2429 0.1391 0.5565c0.918-0.5073 0.3905-1.19 0.2076-1.946l-0.5557-0.0683-0.4836-0.2073-0.3848 0.2411z"/><path d="m-154.3 174.2-0.5921-0.5921 0.1641-0.4239 0.7864 0.1958 0.4252 0.0969 0.1681 0.6902 0.1613 0.2956-0.2613 0.3924-0.1641 0.1642z"/></g><g transform="matrix(1.172 1.172 1.172 -1.172 -593.6 390.3)"><path d="m92.63 284.1v-7.225h-4.662v7.225h-0.5649v-12.66h0.5649v4.874h4.662v-4.874h0.566v12.66z" fill="none" stroke="#151142" stroke-width=".6803"/></g><g><path d="m-152.2 165.9-8.468 8.467-5.464-5.464 8.467-8.467-0.6621-0.6621-14.84 14.84 0.6621 0.6621 5.712-5.712 5.464 5.464-5.712 5.712 0.6635 0.6634 14.84-14.84z" fill="#fcffff"/><path d="m-131.5 195.9c0.0667-0.6198 0.0693-1.204 0.028-1.74l1.001-0.056c0.0347 0.579 0.0133 1.211-0.0973 1.877zm-7.116-0.6245c-1e-5 -0.2311 9.9e-4 -0.4702-0.024-0.7276l6.54-0.3519c0.0427 0.5097 0.044 1.063-0.0227 1.649zm-0.4324-2.486 6.191-1.487c0.1853 0.4005 0.4266 1.022 0.5933 1.807l-6.572 0.3572c-0.06-0.2189-0.132-0.4464-0.2132-0.6771zm7.768-1.866c0.2036 0.4242 0.4989 1.153 0.676 2.097l-1.021 0.0552c-0.1631-0.8142-0.4083-1.472-0.6096-1.922zm4.684 6.832 0.6339 0.0245 0.0707-1.728-0.6337-0.0271-0.0147 0.3097-3.408-0.3002c0.112-0.7009 0.1381-1.357 0.1027-1.964l2.421-0.1291 0.0133 0.3306 0.6319-0.0292-0.076-1.727-0.6319 0.0272 0.0147 0.3083-2.497 0.1345c-0.1757-0.9656-0.4653-1.727-0.6892-2.213l1.29-0.3102 0.08 0.335 0.6175-0.144-0.3936-1.683-0.6176 0.1418 0.068 0.2886-9.866 2.37c-0.3-0.6143-0.6886-1.272-1.189-1.981-1.12-1.587-2.123-2.593-3.008-3.212l5.719-3.98 0.1853 0.2811 0.5272-0.3492-0.9643-1.466-0.5287 0.3479 0.1804 0.2747-6.173 4.295c-1.631-0.6918-2.741-0.0789-3.305 0.0584-0.2133 0.0491-1.374 0.3798-0.9916 1.104l0.1992 0.3868c-2.185 1.008-5.46 3.955-6.299 4.727-0.5087 0.0636-0.886 0.2907-0.8859 0.5625-1.3e-4 0.3189 0.5213 0.3528 1.173 0.3528 0.6505-1e-3 1.183-0.0353 1.182-0.3552-9.5e-4 -0.102-0.0587-0.1967-0.1512-0.2801 1.551-1.375 4.203-3.56 5.684-4.123 0.4599 0.5156 1.001 1.264 1.002 2.195-1.3e-4 1.446-0.1911 3.885 2.247 6.435 2.436 2.551 4.397 2.074 4.857 1.505 0.2098-0.2639 0.9225-0.9671 1.244-2.194l12.19 1.071z" fill="#dd1a1b"/><path d="m-185.2 200.4c1.354-1.527 2.248-2.496 3.11-3.434 0.3702-0.4007 0.6715-0.0268 0.8815 0.2602 1.752 2.399 2.583 3.528 2.583 3.528 0.6585-2.15 1.263-1.707 2.012-1.64 4.286 0.3858 5.204 0.4618 5.204 0.4618-0.7125-1.449-0.7-1.164 2.585-3.057-2.97-1.54-2.571-1.566-1.938-3.155 0 0-0.3727 0.0233-3.374 0.205-0.4207 0.0247-0.6071-0.4622-0.1897-0.7384 4.36-2.895 4.545-3.007 4.545-3.007-2.29-0.5652-2.284-0.4628-2.067-1.135 0.7443-2.312 1.123-3.436 1.123-3.436s-1.123 0.3802-3.433 1.127c-0.6729 0.2157-0.5708 0.2212-1.136-2.068 0 0-0.112 0.185-3.007 4.545-0.2765 0.417-0.7629 0.231-0.7396-0.191 0.1815-3.002 0.2052-3.374 0.2052-3.374-1.588 0.6339-1.614 1.033-3.154-1.937-1.894 3.284-1.609 3.297-3.055 2.587 0 0 0.0747 0.9165 0.4603 5.202 0.0667 0.7488 0.5075 1.351-1.639 2.012 0 0 1.129 0.8307 3.528 2.583 0.2868 0.21 0.6608 0.5113 0.26 0.8814-0.9376 0.8628-1.907 1.757-3.434 3.111z" fill="#dd1a1b"/><path d="m-140.2 213-0.3117 0.1688c-15.75 8.641-31.75 8.98-45.96 4.707l0.3883-0.4349 24.8-24.9 0.2871-0.2871z" fill="#151142"/><path d="m-151.8 209c0.2231-3.849-3.75-7.21-8.87-7.506-5.12-0.2943-9.453 2.588-9.676 6.439-0.2201 3.851 3.751 7.21 8.872 7.506 5.12 0.2963 9.454-2.589 9.673-6.439" fill="#fcffff"/></g><g transform="matrix(1.172 1.172 1.172 -1.172 -593.6 390.3)" fill="none" stroke="#151142"><path d="m111.2 265.8c-1.547 1.737-4.676 1.476-6.986-0.582-2.31-2.059-2.929-5.137-1.381-6.875 1.549-1.737 4.676-1.476 6.987 0.5831 2.311 2.058 2.929 5.138 1.38 6.874z" stroke-width=".4847"/><path d="m102.8 258.4c8e-3 -8e-3 0.017-0.0142 0.0241-0.023 1.512-0.2832 3.643 0.4788 5.465 2.104 1.987 1.769 2.998 4.021 2.662 5.588" stroke-width=".4569"/></g><path d="m-218.7 224.5-0.9529 0.468 1.209 2.461c0.0347 0.0709 0.0773 0.1188 0.1283 0.1411 0.0507 0.0221 0.1227 0.0251 0.2181 7e-3l0.0493 0.0995-1.145 0.5621-0.0493-0.0996c0.0707-0.0608 0.1123-0.118 0.1267-0.1738 0.0133-0.0556 0-0.1196-0.032-0.1907l-1.775-3.613 0.0987-0.0488c0.0616 0.0701 0.1186 0.1129 0.1743 0.1265 0.056 0.0139 0.1186 3e-3 0.1919-0.0323l3.176-1.561c0.072-0.0356 0.1187-0.0787 0.1401-0.1288 0.0213-0.0503 0.0253-0.1226 0.0133-0.2176l0.1-0.0488 1.724 3.509c0.036 0.0739 0.08 0.121 0.1308 0.1435 0.0507 0.0236 0.1227 0.0263 0.2169 8e-3l0.0453 0.0923-1.145 0.5625-0.0453-0.0927c0.0734-0.0635 0.1144-0.1229 0.128-0.1764 0.0133-0.0547 9.2e-4 -0.1176-0.0347-0.1913l-1.158-2.357-0.8536 0.4192 0.718 1.461c0.0347 0.0713 0.0787 0.1183 0.1293 0.1406 0.0507 0.0224 0.1227 0.0269 0.2189 0.0107l0.0453 0.0924-1.116 0.5486-0.0453-0.0927c0.071-0.0625 0.1118-0.1217 0.1267-0.1756 0.0133-0.0545 9.9e-4 -0.1186-0.0347-0.1922zm5.684 5.582-1.133 0.0992v-0.1049c0.0707-0.0445 0.1119-0.1049 0.1254-0.1765 0.0333-0.1943 0.0133-0.4366-0.0747-0.7236-0.0813-0.288-0.2009-0.5559-0.3587-0.8047-0.1335-0.211-0.2823-0.3809-0.4446-0.5062-0.2341-0.1815-0.4331-0.2212-0.5943-0.1187-0.1054 0.0672-0.1458 0.1724-0.1187 0.3128 0.028 0.1423 0.1307 0.3831 0.3101 0.726l0.2885 0.5412c0.2508 0.4726 0.3816 0.8712 0.3913 1.194 0 0.181-0.032 0.3556-0.1093 0.523-0.0947 0.2103-0.2449 0.3804-0.45 0.511-0.3725 0.2362-0.7731 0.2557-1.202 0.0568-0.41-0.1896-0.788-0.5568-1.135-1.104-0.3493-0.5511-0.5713-1.158-0.6643-1.819 0-0.0448-0.0173-0.08-0.032-0.103-0.028-0.0431-0.0803-0.0662-0.1561-0.0715l-0.0187-0.1028 1.132-0.191 0.0187 0.1021c-0.0135 8e-3 -0.0213 0.0143-0.0267 0.0168-0.0573 0.0359-0.0892 0.0878-0.1027 0.157-0.0267 0.17 0.0133 0.4115 0.108 0.7235 0.1 0.3126 0.2322 0.6007 0.3977 0.8616 0.1464 0.2307 0.3084 0.4189 0.4856 0.5629 0.2184 0.1791 0.4096 0.217 0.5759 0.1116 0.1336-0.0847 0.1767-0.2215 0.1293-0.4121-0.032-0.1263-0.1213-0.3345-0.2712-0.6225l-0.2831-0.54c-0.1531-0.2906-0.2595-0.5201-0.3165-0.6888-0.0587-0.168-0.088-0.3274-0.0907-0.4796-4e-4 -0.1948 0.0493-0.3792 0.1499-0.5528 0.1-0.1747 0.2412-0.3182 0.4197-0.431 0.4015-0.2549 0.818-0.2763 1.248-0.066 0.3907 0.1914 0.7323 0.5185 1.026 0.9814 0.1593 0.251 0.2801 0.5028 0.3617 0.7545 0.0827 0.2532 0.148 0.5737 0.1995 0.9636 0.0147 0.1151 0.0333 0.1915 0.056 0.2256 0.0229 0.0356 0.075 0.0651 0.1586 0.0889v0.1056zm1.385 2.584-2.537 1.866c-0.0641 0.0471-0.101 0.0982-0.116 0.152-0.0133 0.0543 0 0.1267 0.028 0.2176l-0.0893 0.0657-0.9063-1.232 0.0893-0.0656c0.0733 0.0579 0.1365 0.0895 0.1936 0.0935 0.0573 4e-3 0.1187-0.0181 0.183-0.0655l2.539-1.868-0.7571-1.029c-0.0493-0.0677-0.1012-0.1069-0.155-0.1188-0.056-0.014-0.1267-3e-3 -0.2155 0.0299l-0.06-0.0829 1.027-0.7558 0.0613 0.0829c-0.0574 0.0729-0.0893 0.1364-0.0947 0.1927 0 0.0559 0.0173 0.1174 0.0667 0.1837l2.133 2.899c0.0494 0.0659 0.1003 0.106 0.1552 0.1188 0.0547 0.0144 0.1254 4e-3 0.2151-0.0304l0.0613 0.0835-1.027 0.7558-0.0613-0.0836c0.0573-0.0747 0.0893-0.139 0.0933-0.196 0-0.0554-0.0173-0.1162-0.0667-0.1832zm-0.1013 3.669c0.1107 0.1391 0.1567 0.2944 0.1375 0.4666-0.02 0.1739-0.1 0.3149-0.2395 0.4264-0.1349 0.108-0.2891 0.1524-0.4644 0.132-0.1745-0.0221-0.3153-0.0988-0.4233-0.2334-0.1093-0.1375-0.1544-0.2928-0.134-0.4677 0.0213-0.1743 0.1-0.3161 0.2364-0.4258 0.1352-0.108 0.2871-0.1519 0.4604-0.1328 0.1725 0.0188 0.314 0.0972 0.4269 0.2347zm4.706 2.059 0.9989-0.984 0.0893 0.0903c-0.048 0.088-0.0747 0.1501-0.076 0.1894-9.9e-4 0.0373 0.016 0.0759 0.0533 0.1144 0.0187 0.0188 0.0467 0.0411 0.088 0.0661l0.2944 0.1766 0.1624-0.1609c0.056-0.0547 0.0853-0.1091 0.0893-0.1641 0-0.054-0.0173-0.1228-0.0627-0.2069l0.0904-0.089 1.129 1.146-0.0905 0.089c-0.0827-0.0481-0.1504-0.0699-0.2047-0.0665-0.0533 9.9e-4 -0.1093 0.0308-0.166 0.0872l-3.183 3.138c-0.0573 0.0567-0.088 0.1125-0.092 0.1661 0 0.0547 0.0173 0.1227 0.064 0.207l-0.0907 0.0893-1.129-1.146 0.0907-0.0893c0.0827 0.0475 0.1515 0.0695 0.206 0.0657 0.0547-3e-3 0.1106-0.0324 0.1676-0.0891l2.379-2.345-0.3185-0.1962c-0.0747-0.0461-0.1384-0.0688-0.1912-0.0691-0.0547-7e-5 -0.1227 0.0251-0.2072 0.0708l-0.0893-0.09zm0.3884 4.671 1.331-0.5409 0.0493 0.1111c-0.0533 0.0383-0.0907 0.074-0.1132 0.1019-0.065 0.0792-0.068 0.2102-1e-5 0.3954 0.0507 0.1536 0.1432 0.3208 0.2748 0.5012 0.132 0.1807 0.2727 0.333 0.4244 0.4585 0.3317 0.2746 0.6873 0.4227 1.064 0.4431 0.25 0.012 0.4763-0.0335 0.6827-0.1295 0.206-0.0972 0.4251-0.2691 0.6569-0.5123-0.3484 0.0133-0.6588-0.0257-0.9293-0.1175-0.2703-0.0915-0.5415-0.2488-0.8113-0.4718-0.431-0.3562-0.7158-0.765-0.8539-1.224-0.0773-0.2625-0.0893-0.5283-0.0333-0.7966 0.0533-0.2605 0.1703-0.4987 0.3485-0.7144 0.3553-0.4296 0.8179-0.6261 1.385-0.5893 0.5539 0.0348 1.095 0.2719 1.624 0.7092 0.576 0.4763 0.9076 0.9957 0.9932 1.555 0.0587 0.3707 0.0173 0.7488-0.124 1.134-0.1363 0.3704-0.3328 0.7115-0.5911 1.024-0.5255 0.6352-1.145 0.9875-1.861 1.055-0.7419 0.07-1.435-0.1602-2.082-0.6944-0.2272-0.188-0.4136-0.3766-0.5613-0.5669-0.1475-0.1905-0.2988-0.4407-0.4541-0.7507-0.052-0.1063-0.1027-0.1785-0.1478-0.2163-0.0335-0.0278-0.0773-0.0435-0.1333-0.0445-0.044-5.6e-4 -0.0747-6.3e-4 -0.0933-3e-3l-0.0387-0.1173zm4.514-1.724c-0.3047-0.2515-0.6131-0.3799-0.9269-0.3873-0.2608-8e-3 -0.474 0.0876-0.6387 0.2871-0.1627 0.1966-0.2163 0.423-0.1608 0.6797 0.0653 0.3048 0.2496 0.5848 0.5552 0.837 0.3073 0.2543 0.6165 0.3833 0.9287 0.3898 0.2621 7e-3 0.4725-0.0872 0.6317-0.2796 0.1666-0.2015 0.2228-0.4309 0.1677-0.6876-0.0613-0.3011-0.2481-0.5804-0.5569-0.8391zm6.578 4.228-1.264 0.685-0.06-0.1051c0.048-0.0489 0.0812-0.0869 0.1-0.1146 0.056-0.0861 0.044-0.217-0.0373-0.394-0.068-0.1499-0.1767-0.3064-0.3245-0.4682-0.1497-0.1624-0.3085-0.2986-0.4753-0.4074-0.3573-0.2344-0.7239-0.3404-1.101-0.3194-0.2472 0.0151-0.4667 0.0827-0.6603 0.2051-0.1933 0.1213-0.3923 0.3166-0.5977 0.5826 0.3449-0.0513 0.6568-0.0477 0.9355 0.0133 0.2788 0.0613 0.5647 0.1869 0.8548 0.3771 0.4697 0.3076 0.7988 0.6844 0.9877 1.128 0.1053 0.2496 0.1463 0.5095 0.124 0.7855-0.0267 0.2637-0.116 0.5144-0.2708 0.7496-0.3028 0.4627-0.7406 0.7083-1.31 0.7366-0.5516 0.0277-1.117-0.1484-1.697-0.5286-0.6248-0.4097-1.009-0.8871-1.154-1.432-0.0973-0.3605-0.0973-0.7411 0-1.141 0.0947-0.3829 0.2525-0.7437 0.4751-1.083 0.4517-0.6893 1.029-1.108 1.732-1.256 0.7287-0.1524 1.443 4.6e-4 2.143 0.4592 0.2454 0.1609 0.4528 0.3302 0.6221 0.506 0.1697 0.1753 0.3471 0.4052 0.53 0.6893 0.064 0.1005 0.1214 0.1665 0.1736 0.2007 0.036 0.0233 0.08 0.0336 0.1334 0.0273 0.044-4e-3 0.0747-8e-3 0.0947-8e-3zm-3.289 0.6742c-0.327-0.214-0.6466-0.3067-0.9594-0.2798-0.2588 0.0215-0.4593 0.1395-0.5996 0.3538-0.1413 0.215-0.1704 0.4472-0.088 0.6954 0.0973 0.2963 0.3121 0.5542 0.6458 0.7725 0.3333 0.2186 0.6556 0.3129 0.9664 0.2842 0.2601-0.024 0.4595-0.1393 0.596-0.3481 0.1436-0.2184 0.1739-0.4531 0.092-0.7009-0.096-0.2942-0.3143-0.5517-0.6532-0.777zm1.286 3.26 1.422-0.6023 0.052 0.1108c-0.0493 0.0493-0.0866 0.0937-0.1093 0.1339-0.064 0.1131-0.04 0.28 0.0747 0.4984 0.2363 0.4573 0.582 0.8158 1.033 1.076 0.3371 0.194 0.6441 0.2763 0.9201 0.2461 0.2987-0.0341 0.5264-0.1863 0.6813-0.4551 0.1428-0.2498 0.1569-0.507 0.04-0.7718-0.1173-0.2645-0.3449-0.4948-0.6849-0.6906-0.2495-0.1434-0.5089-0.2397-0.778-0.2862-0.2691-0.0464-0.4293-0.0247-0.4829 0.0683-0.0176 0.0303-0.0293 0.0852-0.0307 0.162l-0.1227 0.024-0.4952-1.866 0.116-0.0411c0.0174 0.0131 0.0292 0.0221 0.0411 0.0284 0.1067 0.0613 0.2 0.024 0.2783-0.1125l0.5577-0.9696c0.0427-0.0741 0.0587-0.1396 0.0493-0.1956-0.0133-0.0563-0.0493-0.1166-0.1147-0.1816l0.0627-0.1102 3.626 2.086c0.068 0.0393 0.1293 0.0548 0.1816 0.0435 0.052-0.0107 0.1133-0.0488 0.1843-0.1164l0.108 0.0623-0.6957 1.208-0.1093-0.0628c0.0227-0.0955 0.0253-0.1686 0.0133-0.2181-0.0173-0.0513-0.06-0.0959-0.1293-0.135l-2.607-1.5-0.5691 0.9892c0.4741 0.0285 0.9551 0.1836 1.441 0.4632 0.6365 0.3661 1.051 0.8029 1.244 1.31 0.1799 0.469 0.1397 0.9283-0.1213 1.381-0.1981 0.3444-0.4773 0.5935-0.837 0.7506-0.6196 0.2683-1.347 0.162-2.185-0.3201-0.5412-0.3118-0.9519-0.6756-1.233-1.093-0.068-0.1018-0.1744-0.2789-0.3192-0.531-0.0613-0.1102-0.1293-0.1861-0.2054-0.2298-0.0427-0.024-0.124-0.0376-0.2422-0.0371l-0.0493-0.1151z" fill="#151142"/><text x="100" y="128" fill="#000000" font-family="'Noto Mono'" font-size="17.33px" letter-spacing="0px" word-spacing="0px" style="line-height:1.25" xml:space="preserve"/>
</g><g><path d="m-188.3 55.76 97.67 2.12e-4 -2.401-4.193-3.194-1.997-1.799-1.401-2.992-1.799-0.4038-0.5965c-1.712-1.295-3.926-3.988-6.192-5.594l-1.394-1.394-2.199-0.5967-2.198 0.2034-1.795 0.5947-1.805 1.401c-6.382 4.201-4.943 2.384-12.78 3.593l-1.198-2.598-0.9994-1.597-2.397-2.396-1.591-1.996-1.4-1.798-1.4-1.395-1.8-2.603c-5.054 0.04412-9.412 0.76-11.98 5.596l-2.796 1.4-2.001 2.795-1.4 1.197-1.001 2.598-1.997 0.5969-1.794 0.6015-1.995-2.599-1.199-0.3998-5.989 0.2028-3.397 2.396-3.39 1.395-2.204 1.4-1.198 1.799-1.603 2.193-2.794 2.002z" fill="#151142"/><g fill="#fff"><path d="m-171.5 45.77 1.401 0.4147 1.951 0.2796 1.958-1.117-1.958-0.2785-1.117-0.9735-1.121-2.3e-5 -1.526 1.531z"/><path d="m-146.2 36.06 1.626 1.296 1.776-0.3289 1.134 4.6e-5 1.623 0.9739c0.9583-3.326-1.865-3.687-4.057-5.026l-1.456 1.137-1.612 0.6446-0.3352 1.46z"/><path d="m-112.2 44.68-2.763 1.62e-4 -0.6062-1.372 2.292-1.378 1.218-0.766 2.003 1.218 1.066 0.3134 0.3059 1.525 2.1e-4 0.7661z"/></g></g><g fill="none" stroke="#151142" stroke-width="3.269"><path d="m-136 19.9 25-28 25 28" filter="url(#filter1985)" style="paint-order:normal"/><path d="m-156 19.9 21-18 8.531 7.547" filter="url(#filter1981)" style="paint-order:normal"/><path d="m-56 19.9-22-18-14.62 11" filter="url(#filter1977)" style="paint-order:normal"/></g><g transform="matrix(5.469 0 0 -5.469 -571.1 1623)" stroke-width=".303"><path d="m92.63 284.1v-7.225h-4.662v7.225h-0.5649v-12.66h0.5649v4.874h4.662v-4.874h0.566v12.66z" fill="none" stroke="#151142" stroke-width=".2062"/></g><path d="m-64.5 69.3-2.5e-4 39.51-25.5-1.3e-4 -6e-5 -39.51-3.09 4.6e-5 -6e-5 69.26 3.09-9e-5 2.1e-4 -26.66 25.5 1.3e-4 1.3e-4 26.66 3.096-5e-5 -3.5e-4 -69.26z" fill="#fcffff"/></svg>
